<svg fill="none" height="50" viewBox="0 0 140 50" width="140" xmlns="http://www.w3.org/2000/svg"><g clip-rule="evenodd" fill="#afb2b8" fill-rule="evenodd"><path d="m14.2077 44.4339-6.48583-2.2979v-9.3853l6.48583 2.1817zm1.1897 0 6.4859-2.2975v-9.3857l-6.4859 2.1817zm-7.00903-12.3853 6.56413-1.8245 6.0868 1.9378-6.0868 2.0403zm-1.90255-.7268-6.48582-2.297v-9.3862l6.48582 2.1817zm1.18975 0 6.48623-2.297v-9.3862l-6.48623 2.1817zm-7.00907-12.3857 6.56459-1.824 6.08681 1.9377-6.08681 2.0403-6.56459-2.1535zm20.9536 12.3857-6.4862-2.297v-9.3862l6.4862 2.1817zm1.1898 0 6.4862-2.297v-9.3862l-6.4862 2.1817zm-7.0087-12.3857 6.5642-1.824 6.0863 1.9377-6.0863 2.0403-6.5642-2.1535zm13.5408-.7272-6.4863-2.2962v-9.38617l6.4863 2.18129zm1.1897 0 6.4859-2.2962v-9.38617l-6.4863 2.18129v9.50108zm-7.009-12.3844 6.5646-1.8245 6.0863 1.93731-6.0863 2.04071zm20.954 12.3844-6.4862-2.2962v-9.38617l6.4862 2.18129zm1.1893 0 6.4863-2.2962v-9.38617l-6.4863 2.18129zm-7.009-12.3844 6.5646-1.8245 6.0863 1.93731-6.0863 2.04028-6.5646-2.15351"/><path d="m41.1769 38.3193-2.1787 7.4728h-.9465l-1.6966-5.5504-1.555 5.5504h-.9651l-2.2657-7.4728h1.1707l1.6494 5.5688 1.5702-5.5688h.8638l1.707 5.5868 1.6952-5.5868h.9508z"/><path d="m41.1769 38.3193-2.1787 7.4728h-.9465l-1.6966-5.5504-1.555 5.5504h-.9651l-2.2657-7.4728h1.1707l1.6494 5.5688 1.5702-5.5688h.8638l1.707 5.5868 1.6952-5.5868h.9508z"/><path d="m47.204 43.5632 1.0967.2222c-.1995.6388-.5886 1.1682-1.1663 1.5865-.5791.4187-1.2595.6281-2.0428.6281-1.0322 0-1.8675-.3589-2.5059-1.0776-.6388-.7179-.9578-1.6605-.9578-2.8257 0-1.19.332-2.1513.995-2.8846.6631-.7332 1.4962-1.0998 2.499-1.0998.988 0 1.7818.3376 2.3829 1.0127.6007.6751.9089 1.6852.924 3.0303h-5.4934c0 1.1301.2389 1.892.7176 2.2872.4782.3944.9841.5918 1.5173.5918.9621 0 1.6403-.4905 2.0337-1.4711zm-.064-2.274c-.01-.4188-.0797-.7914-.2095-1.117-.1298-.3251-.3488-.6024-.6578-.8319-.3091-.229-.6808-.3435-1.1145-.3435-.583 0-1.0776.2068-1.484.6213-.4064.4144-.6341.9707-.6838 1.6706h4.1496z"/><path d="m47.204 43.5632 1.0967.2222c-.1995.6388-.5886 1.1682-1.1663 1.5865-.5791.4187-1.2595.6281-2.0428.6281-1.0322 0-1.8675-.3589-2.5059-1.0776-.6388-.7179-.9578-1.6605-.9578-2.8257 0-1.19.332-2.1513.995-2.8846.6631-.7332 1.4962-1.0998 2.499-1.0998.988 0 1.7818.3376 2.3829 1.0127.6007.6751.9089 1.6852.924 3.0303h-5.4934c0 1.1301.2389 1.892.7176 2.2872.4782.3944.9841.5918 1.5173.5918.9621 0 1.6403-.4905 2.0337-1.4711zm-.064-2.274c-.01-.4188-.0797-.7914-.2095-1.117-.1298-.3251-.3488-.6024-.6578-.8319-.3091-.229-.6808-.3435-1.1145-.3435-.583 0-1.0776.2068-1.484.6213-.4064.4144-.6341.9707-.6838 1.6706h4.1496z"/><path d="m50.5455 45.7916h-.567v-10.0895h1.1794v3.8627c.5384-.9691 1.2806-1.4532 2.2271-1.4532.8665 0 1.5927.338 2.1783 1.0148.5855.6764.8785 1.6587.8785 2.9474 0 1.111-.2882 2.0424-.8638 2.7957-.5765.7533-1.3257 1.1298-2.2484 1.1298-1.0274 0-1.8151-.4816-2.3634-1.4442zm.6124-2.9299c.0549.7674.2934 1.3238.7149 1.6707.4216.3461.8674.5196 1.3361.5196.599 0 1.082-.2568 1.4485-.7704.367-.5132.5497-1.2165.5497-2.1099 0-.9619-.1766-1.7186-.5311-2.2689-.3544-.5504-.8461-.826-1.4745-.826-.4938 0-.9391.1966-1.336.5876-.3969.3922-.6328.8985-.7076 1.5194z"/><path d="m50.5455 45.7916h-.567v-10.0895h1.1794v3.8627c.5384-.9691 1.2806-1.4532 2.2271-1.4532.8665 0 1.5927.338 2.1783 1.0148.5855.6764.8785 1.6587.8785 2.9474 0 1.111-.2882 2.0424-.8638 2.7957-.5765.7533-1.3257 1.1298-2.2484 1.1298-1.0274 0-1.8151-.4816-2.3634-1.4442zm.6124-2.9299c.0549.7674.2934 1.3238.7149 1.6707.4216.3461.8674.5196 1.3361.5196.599 0 1.082-.2568 1.4485-.7704.367-.5132.5497-1.2165.5497-2.1099 0-.9619-.1766-1.7186-.5311-2.2689-.3544-.5504-.8461-.826-1.4745-.826-.4938 0-.9391.1966-1.336.5876-.3969.3922-.6328.8985-.7076 1.5194z"/><path d="m59.4453 43.8559 1.124-.2295c.2501.9388 1.04 1.4079 2.3691 1.4079.489 0 .9045-.1081 1.2438-.3247.3402-.2162.5098-.5213.5098-.9148 0-.5854-.4323-.9567-1.2975-1.114l-1.5939-.2995c-.6246-.1184-1.121-.3504-1.4906-.6956-.3691-.3453-.5539-.8016-.5539-1.369 0-.626.2518-1.1503.756-1.572.5038-.4217 1.1829-.6324 2.0363-.6324 1.642 0 2.6556.6337 3.0395 1.9006l-1.0785.229c-.3094-.776-.9452-1.1644-1.9077-1.1644-.4791 0-.8721.0975-1.179.291-.3064.194-.46.4649-.46.8136 0 .549.3921.8947 1.1759 1.0374l1.4736.2679c1.5429.2761 2.3137 1.0153 2.3137 2.2155 0 .6862-.2869 1.2413-.8612 1.663-.5743.423-1.3386.6341-2.2929.6341-1.7931 0-2.9024-.7149-3.3265-2.1441z"/><path d="m59.4453 43.8559 1.124-.2295c.2501.9388 1.04 1.4079 2.3691 1.4079.489 0 .9045-.1081 1.2438-.3247.3402-.2162.5098-.5213.5098-.9148 0-.5854-.4323-.9567-1.2975-1.114l-1.5939-.2995c-.6246-.1184-1.121-.3504-1.4906-.6956-.3691-.3453-.5539-.8016-.5539-1.369 0-.626.2518-1.1503.756-1.572.5038-.4217 1.1829-.6324 2.0363-.6324 1.642 0 2.6556.6337 3.0395 1.9006l-1.0785.229c-.3094-.776-.9452-1.1644-1.9077-1.1644-.4791 0-.8721.0975-1.179.291-.3064.194-.46.4649-.46.8136 0 .549.3921.8947 1.1759 1.0374l1.4736.2679c1.5429.2761 2.3137 1.0153 2.3137 2.2155 0 .6862-.2869 1.2413-.8612 1.663-.5743.423-1.3386.6341-2.2929.6341-1.7931 0-2.9024-.7149-3.3265-2.1441z"/><path d="m72.1977 43.5632 1.0967.2222c-.1991.6388-.5882 1.1682-1.1668 1.5865-.5782.4187-1.2594.6281-2.0419.6281-1.0326 0-1.8684-.3589-2.5063-1.0776-.6388-.7179-.9573-1.6605-.9573-2.8257 0-1.19.3311-2.1513.9954-2.8846.663-.7332 1.4957-1.0998 2.4985-1.0998.9872 0 1.7818.3376 2.3829 1.0127.6012.6751.9089 1.6852.9236 3.0303h-5.4934c0 1.1301.2393 1.892.7176 2.2872.4786.3944.9846.5918 1.5178.5918.9616 0 1.6398-.4905 2.0332-1.4711zm-.064-2.274c-.0096-.4188-.0797-.7914-.2091-1.117-.1298-.3251-.3488-.6024-.6578-.8319-.309-.229-.6812-.3435-1.1145-.3435-.5829 0-1.0776.2068-1.4844.6213-.406.4144-.6345.9707-.6838 1.6706h4.1496z"/><path d="m72.1977 43.5632 1.0967.2222c-.1991.6388-.5882 1.1682-1.1668 1.5865-.5782.4187-1.2594.6281-2.0419.6281-1.0326 0-1.8684-.3589-2.5063-1.0776-.6388-.7179-.9573-1.6605-.9573-2.8257 0-1.19.3311-2.1513.9954-2.8846.663-.7332 1.4957-1.0998 2.4985-1.0998.9872 0 1.7818.3376 2.3829 1.0127.6012.6751.9089 1.6852.9236 3.0303h-5.4934c0 1.1301.2393 1.892.7176 2.2872.4786.3944.9846.5918 1.5178.5918.9616 0 1.6398-.4905 2.0332-1.4711zm-.064-2.274c-.0096-.4188-.0797-.7914-.2091-1.117-.1298-.3251-.3488-.6024-.6578-.8319-.309-.229-.6812-.3435-1.1145-.3435-.5829 0-1.0776.2068-1.4844.6213-.406.4144-.6345.9707-.6838 1.6706h4.1496z"/><path d="m75.8698 45.7923h-1.1794v-7.4728h1.0335v1.7421c.364-.8161.7297-1.3447 1.0963-1.5861.3666-.2423.7422-.3632 1.127-.3632.1194 0 .2744.009.4639.0269v1.1101h-.2389c-.6483 0-1.1862.238-1.6143.7131-.4289.4752-.6578 1.0994-.6881 1.8737z"/><path d="m75.8698 45.7923h-1.1794v-7.4728h1.0335v1.7421c.364-.8161.7297-1.3447 1.0963-1.5861.3666-.2423.7422-.3632 1.127-.3632.1194 0 .2744.009.4639.0269v1.1101h-.2389c-.6483 0-1.1862.238-1.6143.7131-.4289.4752-.6578 1.0994-.6881 1.8737z"/><path d="m85.7348 38.3193-2.6132 7.4728h-1.2217l-2.7007-7.4728h1.3045l2.1007 6.0739 2.0848-6.0739z"/><path d="m85.7348 38.3193-2.6132 7.4728h-1.2217l-2.7007-7.4728h1.3045l2.1007 6.0739 2.0848-6.0739z"/><path d="m86.6777 35.7021h1.2616v1.2904h-1.2616zm.055 2.6167h1.1789v7.4728h-1.1789z"/><path d="m86.6777 35.7021h1.2616v1.2904h-1.2616zm.055 2.6167h1.1789v7.4728h-1.1789z"/><path d="m94.0728 43.1752 1.0599.1846c-.1497.8259-.4817 1.4724-.9959 1.9394-.5141.4671-1.1555.7008-1.9242.7008-1.043 0-1.8385-.3803-2.3846-1.1409-.5462-.7601-.8202-1.6882-.8202-2.7846 0-1.1357.2887-2.0796.8652-2.8329.576-.7529 1.3611-1.1293 2.3544-1.1293.824 0 1.484.2431 1.9804.7302.4973.4863.805 1.1152.9249 1.8856l-1.0603.1996c-.1996-1.2327-.8029-1.8502-1.8104-1.8502-.6483 0-1.1469.2722-1.4957.8166-.3493.5448-.5237 1.2506-.5237 2.1176 0 .9563.1731 1.6985.5193 2.2283.3471.5294.8344.7943 1.4629.7943.972 0 1.5883-.6195 1.848-1.8587z"/><path d="m94.0728 43.1752 1.0599.1846c-.1497.8259-.4817 1.4724-.9959 1.9394-.5141.4671-1.1555.7008-1.9242.7008-1.043 0-1.8385-.3803-2.3846-1.1409-.5462-.7601-.8202-1.6882-.8202-2.7846 0-1.1357.2887-2.0796.8652-2.8329.576-.7529 1.3611-1.1293 2.3544-1.1293.824 0 1.484.2431 1.9804.7302.4973.4863.805 1.1152.9249 1.8856l-1.0603.1996c-.1996-1.2327-.8029-1.8502-1.8104-1.8502-.6483 0-1.1469.2722-1.4957.8166-.3493.5448-.5237 1.2506-.5237 2.1176 0 .9563.1731 1.6985.5193 2.2283.3471.5294.8344.7943 1.4629.7943.972 0 1.5883-.6195 1.848-1.8587z"/><path d="m101.782 43.5632 1.097.2222c-.199.6388-.589 1.1682-1.167 1.5865-.578.4187-1.259.6281-2.0423.6281-1.0326 0-1.8679-.3589-2.5063-1.0776-.6384-.7179-.9573-1.6605-.9573-2.8257 0-1.19.3315-2.1513.9954-2.8846.663-.7332 1.4961-1.0998 2.4989-1.0998.9866 0 1.7816.3376 2.3826 1.0127.602.6751.909 1.6852.924 3.0303h-5.4939c0 1.1301.2393 1.892.7176 2.2872.4791.3944.9841.5918 1.5182.5918.9611 0 1.6391-.4905 2.0331-1.4711zm-.064-2.274c-.01-.4188-.08-.7914-.209-1.117-.13-.3251-.349-.6024-.658-.8319-.309-.229-.681-.3435-1.1146-.3435-.5834 0-1.0781.2068-1.4845.6213-.406.4144-.6345.9707-.6838 1.6706h4.1499z"/><path d="m101.782 43.5632 1.097.2222c-.199.6388-.589 1.1682-1.167 1.5865-.578.4187-1.259.6281-2.0423.6281-1.0326 0-1.8679-.3589-2.5063-1.0776-.6384-.7179-.9573-1.6605-.9573-2.8257 0-1.19.3315-2.1513.9954-2.8846.663-.7332 1.4961-1.0998 2.4989-1.0998.9866 0 1.7816.3376 2.3826 1.0127.602.6751.909 1.6852.924 3.0303h-5.4939c0 1.1301.2393 1.892.7176 2.2872.4791.3944.9841.5918 1.5182.5918.9611 0 1.6391-.4905 2.0331-1.4711zm-.064-2.274c-.01-.4188-.08-.7914-.209-1.117-.13-.3251-.349-.6024-.658-.8319-.309-.229-.681-.3435-1.1146-.3435-.5834 0-1.0781.2068-1.4845.6213-.406.4144-.6345.9707-.6838 1.6706h4.1499z"/><path d="m103.673 43.8559 1.125-.2295c.249.9388 1.039 1.4079 2.368 1.4079.49 0 .904-.1081 1.244-.3247.34-.2162.51-.5213.51-.9148 0-.5854-.432-.9567-1.297-1.114l-1.594-.2995c-.625-.1184-1.121-.3504-1.491-.6956-.369-.3453-.554-.8016-.554-1.369 0-.626.251-1.1503.756-1.572.504-.4217 1.182-.6324 2.036-.6324 1.642 0 2.656.6337 3.04 1.9006l-1.079.229c-.309-.776-.945-1.1644-1.907-1.1644-.479 0-.872.0975-1.179.291-.307.194-.46.4649-.46.8136 0 .549.392.8947 1.176 1.0374l1.473.2679c1.543.2761 2.314 1.0153 2.314 2.2155 0 .6862-.287 1.2413-.861 1.663-.575.423-1.339.6341-2.293.6341-1.793 0-2.903-.7149-3.327-2.1441z"/><path d="m103.673 43.8559 1.125-.2295c.249.9388 1.039 1.4079 2.368 1.4079.49 0 .904-.1081 1.244-.3247.34-.2162.51-.5213.51-.9148 0-.5854-.432-.9567-1.297-1.114l-1.594-.2995c-.625-.1184-1.121-.3504-1.491-.6956-.369-.3453-.554-.8016-.554-1.369 0-.626.251-1.1503.756-1.572.504-.4217 1.182-.6324 2.036-.6324 1.642 0 2.656.6337 3.04 1.9006l-1.079.229c-.309-.776-.945-1.1644-1.907-1.1644-.479 0-.872.0975-1.179.291-.307.194-.46.4649-.46.8136 0 .549.392.8947 1.176 1.0374l1.473.2679c1.543.2761 2.314 1.0153 2.314 2.2155 0 .6862-.287 1.2413-.861 1.663-.575.423-1.339.6341-2.293.6341-1.793 0-2.903-.7149-3.327-2.1441z"/><path d="m77.0935 22.3481v-1.7946c-.0016-.0602.0092-.12.0318-.176.0226-.0559.0565-.1067.0996-.1493.0431-.0425.0946-.076.1512-.0983.0567-.0223.1173-.033.1783-.0314l8.1486-.0009c.261 0 .47.1872.4704.4529l-.0004 1.54c-.0022.2581-.2225.5952-.6137 1.1297l-4.2206 5.95c1.5667-.0364 3.2243.1952 4.6478.9853.3211.1777.4068.4418.4319.7007v1.9151c0 .2641-.2921.5692-.5999.4102-2.508-1.2968-5.8366-1.4391-8.6095.0158-.2835.1496-.5799-.1517-.5799-.4157v-1.8207c0-.2914.0052-.7896.3029-1.234l4.8906-6.9263-4.2583-.0004c-.2601 0-.4687-.1837-.4704-.4521zm-29.1616 11.2107h-2.4794c-.2359-.015-.4242-.1901-.4432-.4132l.0017-12.5622c0-.2508.2143-.452.4783-.452l2.3085-.0004c.2419.0119.4358.1922.4509.4217v1.6403h.0468c.6016-1.586 1.7355-2.3265 3.2624-2.3265 1.5507 0 2.5223.7405 3.2169 2.3265.6016-1.586 1.9666-2.3265 3.4247-2.3265 1.0413 0 2.1752.423 2.8694 1.3745.7868 1.0571.625 2.5907.625 3.9387l-.0018 7.927c0 .2513-.2142.4525-.4782.4525h-2.476c-.2489-.0158-.4454-.2106-.4454-.4512v-6.6596c0-.5286.0459-1.8502-.0701-2.3522-.1852-.8461-.74-1.0841-1.4576-1.0841-.6016 0-1.2265.3966-1.481 1.0311-.2549.6345-.2316 1.6916-.2316 2.4056v6.6579c0 .2513-.2142.4525-.4778.4525h-2.4764c-.2489-.0158-.4449-.2106-.4449-.4512l-.0026-6.6596c0-1.4007.2315-3.4628-1.5269-3.4628-1.7822 0-1.7126 2.0091-1.7126 3.4628l-.0013 6.6583c0 .2513-.2138.4525-.4778.4525zm44.2275-13.6923c3.6501 0 5.6245 3.1191 5.6245 7.0843 0 3.8328-2.1808 6.8729-5.6245 6.8729-3.5814 0-5.5328-3.1192-5.5328-7.0049 0-3.9126 1.9748-6.9519 5.5328-6.9519zm.0229 2.8876c-1.8138 0-1.9285 2.4581-1.9285 3.9912s-.023 4.4878 1.9056 4.4878c1.9055 0 1.9973-2.3202 1.9973-3.9323 0-1.0575-.0454-2.3266-.367-3.3307-.2761-.8725-.8266-1.216-1.6074-1.216zm10.8847 10.8047h-2.47c-.248-.0154-.445-.2102-.445-.4508l-.004-12.5664c.021-.2299.227-.4102.476-.4102l2.3-.0004c.216.0106.395.1568.44.3516v1.9215h.047c.694-1.7181 1.666-2.5376 3.378-2.5376 1.111 0 2.199.3965 2.893 1.4805.648 1.0041.648 2.6962.648 3.9122v7.9039c-.028.2231-.23.3961-.475.3961h-2.485c-.23-.0149-.415-.1811-.442-.3961v-6.8203c0-1.3746.163-3.3836-1.55-3.3836-.602 0-1.157.3965-1.435 1.0045-.347.7665-.393 1.5331-.393 2.3791v6.7639c-.005.2513-.219.4525-.483.4525zm-32.1884-5.9986c0 .9541.0233 1.7484-.4631 2.5961-.3947.6892-1.021 1.1127-1.7169 1.1127-.9504 0-1.507-.7153-1.507-1.775 0-2.0843 1.8939-2.4637 3.6874-2.4637v.5299zm2.4998 5.9674c-.1645.1453-.4008.1551-.586.0573-.8232-.676-.9708-.9883-1.4209-1.6314-1.3611 1.369-2.3245 1.7792-4.0873 1.7792-2.0869 0-3.7103-1.2716-3.7103-3.8148 0-1.9869 1.0898-3.3379 2.6435-4.0002 1.3451-.5828 3.2239-.6888 4.6612-.8478v-.3179c0-.5828.0467-1.2716-.3013-1.7749-.3012-.4504-.8811-.6358-1.3914-.6358-.9456 0-1.7861.4786-1.9926 1.4699-.0428.2204-.206.4384-.4306.4495l-2.4028-.2564c-.203-.0453-.4285-.206-.3701-.5115.5523-2.8782 3.1849-3.7477 5.5441-3.7477 1.2057 0 2.7828.3179 3.7337 1.2186 1.2057 1.1127 1.0897 2.5962 1.0897 4.2122v3.8131c0 1.1468.483 1.6502.9362 2.2684.1579.2222.1939.4871-.0087.6499-.5063.4188-1.4057 1.1909-1.9008 1.6259zm-34.7169-5.9674c0 .9541.0234 1.7484-.4635 2.5961-.3943.6892-1.0205 1.1127-1.7164 1.1127-.9509 0-1.507-.7153-1.507-1.775 0-2.0843 1.8939-2.4637 3.6869-2.4637zm2.4998 5.9674c-.1644.1453-.4012.1551-.586.0573-.8236-.676-.9711-.9883-1.4212-1.6314-1.3607 1.369-2.3246 1.7792-4.0869 1.7792-2.0874 0-3.7108-1.2716-3.7108-3.8148 0-1.9869 1.0898-3.3379 2.644-4.0002 1.3451-.5828 3.2238-.6888 4.6611-.8478v-.3179c0-.5828.0463-1.2716-.3012-1.7749-.3016-.4504-.8816-.6358-1.3914-.6358-.9457 0-1.7866.4786-1.993 1.4699-.0429.2204-.2056.4384-.4306.4495l-2.4025-.2564c-.203-.0453-.4284-.206-.37-.5115.5522-2.8782 3.1845-3.7477 5.5441-3.7477 1.2057 0 2.7828.3179 3.7337 1.2186 1.2057 1.1127 1.0897 2.5962 1.0897 4.2122v3.8131c0 1.1468.4826 1.6502.9357 2.2684.1584.2222.1939.4871-.0078.6499-.5063.4188-1.4065 1.1909-1.9012 1.6259z"/></g></svg>