<svg xmlns="http://www.w3.org/2000/svg" width="114" height="30.841" viewBox="0 0 114 30.841">
  <g id="angular-3-logo-png-transparent" transform="translate(-0.394 651.015)">
    <path id="Path_1" data-name="Path 1" d="M7.581-648.486C3.631-647.079.4-645.924.395-645.914c-.029.038,2.2,18.954,2.239,18.992s2.657,1.492,5.846,3.26,5.908,3.279,6.036,3.351l.242.138,6.174-3.417,6.179-3.417,1.193-9.5c.656-5.223,1.188-9.5,1.179-9.51s-14.391-4.933-14.61-5C14.781-651.038,13.108-650.463,7.581-648.486Zm11.853,10.993c2.543,5.437,4.629,9.914,4.643,9.943a13.613,13.613,0,0,1-2.519.019l-.656-.029-.979-2.272-.979-2.267-3.992.01-3.988.014-.889,2.224c-.49,1.221-.9,2.234-.917,2.248-.033.033-3.322.1-3.336.067s8.93-19.909,8.959-19.876S16.891-642.93,19.434-637.492Z" fill="#afb2b8"/>
    <path id="Path_2" data-name="Path 2" d="M250.909-440.334c-.219.528-2.509,6-2.533,6.06s.276.071,2.78.071c1.706,0,2.809-.019,2.809-.043s-2.633-5.57-2.885-6.065l-.1-.19Z" transform="translate(-236.194 -200.51)" fill="#afb2b8"/>
    <path id="Path_3" data-name="Path 3" d="M1844.133-502.777c-.038.09-1.592,3.626-3.45,7.861s-3.393,7.728-3.408,7.761.171.057.917.048l.946-.014,2.5-6.093c1.374-3.351,2.509-6.079,2.528-6.06s2.552,6.107,2.59,6.245c.024.081-.081.086-1.754.086h-1.778l-.223.68c-.124.371-.223.694-.223.713s1.041.038,2.31.043l2.305.014.893,2.186.894,2.186,1.008.014c.951.01,1,0,.96-.071-.024-.048-1.587-3.6-3.474-7.9s-3.441-7.828-3.451-7.837S1844.171-502.867,1844.133-502.777Z" transform="translate(-1749.577 -141.056)" fill="#afb2b8"/>
    <path id="Path_4" data-name="Path 4" d="M1023.458-466.831a6.416,6.416,0,0,0-4.719,2.391,6.185,6.185,0,0,0-.789,1.587,10.643,10.643,0,0,0,.114,6.2c.836,2.224,2.571,3.47,5.371,3.859a11.567,11.567,0,0,0,4.838-.361l.509-.152v-5.832h-1.759v2.348c0,2.082-.01,2.353-.076,2.376-.038.014-.385.071-.77.128a8.373,8.373,0,0,1-3.612-.247c-2.22-.732-3.351-2.776-3.222-5.841a5.774,5.774,0,0,1,.627-2.662c.836-1.616,2.543-2.424,5.1-2.424a10.254,10.254,0,0,1,3.626.642c.076.033.081-.014.071-.741l-.014-.775-.285-.09a15.053,15.053,0,0,0-2.048-.39A19.973,19.973,0,0,0,1023.458-466.831Z" transform="translate(-968.806 -175.386)" fill="#afb2b8"/>
    <path id="Path_5" data-name="Path 5" d="M706-457.99v7.01h1.711l.009-5.694.014-5.694,4.277,5.694,4.278,5.694h1.782V-465h-1.664v5.632c0,3.1-.014,5.632-.033,5.627s-1.958-2.533-4.306-5.632L707.8-465H706Z" transform="translate(-672.07 -177.174)" fill="#afb2b8"/>
    <path id="Path_6" data-name="Path 6" d="M1316-460.285c0,3.869.014,4.8.071,5.171a4.545,4.545,0,0,0,4.111,4.116,13.131,13.131,0,0,0,2.875.048c2.633-.347,4.006-1.6,4.482-4.087.062-.328.076-1.126.09-5.176l.019-4.786h-1.806l-.019,4.786c-.019,5.223,0,4.976-.295,5.741a3.014,3.014,0,0,1-1.564,1.711,4.092,4.092,0,0,1-1.606.409,4.876,4.876,0,0,1-1.117,0,4.03,4.03,0,0,1-1.63-.418,2.291,2.291,0,0,1-.832-.6,3.5,3.5,0,0,1-.974-2.215c-.029-.252-.048-2.091-.048-4.9V-465H1316Z" transform="translate(-1253.078 -177.174)" fill="#afb2b8"/>
    <path id="Path_7" data-name="Path 7" d="M1629-457.99v7.01h9.125v-1.473h-7.319V-465H1629Z" transform="translate(-1551.202 -177.174)" fill="#afb2b8"/>
    <path id="Path_8" data-name="Path 8" d="M2171-458.09v7.015h1.806l.01-6.264.014-6.259h2.281a13.619,13.619,0,0,1,2.576.081,1.719,1.719,0,0,1,1.393,1.882,2.448,2.448,0,0,1-1.065,2.025,6.886,6.886,0,0,1-2.866,1.055c-.1.019-.109.038-.1.6v.58l2.224,3.137,2.219,3.137,1.174.014c.646,0,1.174,0,1.174-.014s-1.06-1.483-2.357-3.265-2.367-3.265-2.376-3.294.152-.109.361-.181.6-.242.865-.371a4.466,4.466,0,0,0,2.49-2.49,2.486,2.486,0,0,0,.133-1.069,3.053,3.053,0,0,0-.352-1.7,2.794,2.794,0,0,0-1.663-1.359c-.722-.242-.7-.238-4.43-.257L2171-465.1Z" transform="translate(-2067.442 -177.079)" fill="#afb2b8"/>
  </g>
</svg>
