<?xml version="1.0" encoding="UTF-8"?>
<svg id="Layer_1" data-name="Layer 1" xmlns="http://www.w3.org/2000/svg" viewBox="0 0 1340.11 375.43">
  <defs>
    <style>
      .cls-1 {
        fill: #afb2b8;
      }
    </style>
  </defs>
  <path class="cls-1" d="M300.29,.65c-.82,2.93-3.17,4.29-4.93,6.05C217.56,84.48,139.68,162.18,62.01,240.1c-4.7,4.72-7.09,4.46-11.51-.11-15.66-16.19-31.66-32.04-47.77-47.79-3.46-3.39-3.78-5.28-.15-8.9C62.59,123.59,122.44,63.74,182.3,3.9,184.54,1.67,186.65-.01,190.2,0c36.05,.13,72.09,.08,108.14,.1,.61,0,1.22,.33,1.95,.54Z"/>
  <path class="cls-1" d="M465.62,190.62c0-34.15,.1-68.29-.11-102.44-.03-5.14,1.11-6.94,6.64-6.91,38.19,.24,76.39,.2,114.59,.03,4.61-.02,6.05,1.25,6.11,5.97,.24,19.33,.4,19.33-18.98,19.33-24.44,0-48.87-.03-73.31,.02-10.12,.02-8.92-1.07-8.95,9.28-.06,18.73,.29,37.47-.18,56.2-.17,6.89,1.22,9.31,8.78,9.14,25.37-.55,50.77-.09,76.15-.31,4.88-.04,6.5,1.22,6.51,6.3,.06,19.01,.25,19-18.61,19-21.59,0-43.18,.3-64.76-.18-6.84-.15-8.13,2.16-8.05,8.39,.32,25.84,.14,51.69,.13,77.54q0,9.47-9.15,9.05c-1.66-.07-3.32-.11-4.98-.11q-11.85,.03-11.85-12.13c0-32.72,0-65.45,0-98.17Z"/>
  <path class="cls-1" d="M796.14,278.3c-18.75,23.97-41.82,31.52-69.26,25.45-23.34-5.16-38.56-23.49-39.68-50.94-1.42-34.8-.57-69.69-.8-104.53-.02-3.61,1.7-4.13,4.79-4.31,21.53-1.22,21.4-1.28,21.56,20.29,.2,26.55-1.03,53.12,.6,79.63,1.28,20.88,9.56,32.29,24.95,36.34,17.98,4.73,35.93-1.85,46.93-17.29,6.39-8.96,9.54-18.94,9.51-29.99-.06-27.27,.11-54.54-.13-81.8-.05-5.36,1.08-7.89,6.97-7.19,6.29,.74,14.4-2.56,18.55,1.3,4.26,3.97,1.37,12.15,1.39,18.46,.14,43.15-.04,86.31,.21,129.46,.03,5.83-1.38,8.23-7.41,7.49-3.51-.43-7.17-.5-10.65,.01-6.65,.98-8.24-1.99-7.61-7.96,.44-4.16,.08-8.39,.08-14.42Z"/>
  <path class="cls-1" d="M143.01,216.5c13.64-13.81,27.29-27.62,40.93-41.44,1.8-1.83,4.02-2.33,6.48-2.33,35.8,.01,71.59,0,107.39,.03,.85,0,1.7,.37,2.29,.52-32.99,33.47-65.85,66.81-98.71,100.14-2.58,1.13-3.98-.88-5.39-2.27-16.92-16.74-33.75-33.58-50.53-50.46-1.16-1.17-2.3-2.39-2.47-4.17Z"/>
  <path class="cls-1" d="M201.27,274.46c32.92,33.32,65.84,66.63,98.9,100.09-.99,1.57-3.08,.56-4.77,.57-34.35,.06-68.69-.03-103.04,.11-4.36,.02-7.54-1.17-10.61-4.33-12.53-12.91-25.32-25.58-38.01-38.33-.82-3.45,1.79-5.21,3.72-7.15,15.72-15.82,31.5-31.58,47.31-47.3,1.78-1.77,3.35-4.18,6.49-3.65Z"/>
  <path class="cls-1" d="M942.88,276.37c0,6.39-.58,11.91,.14,17.25,.97,7.1-2.26,9.9-8.6,10.9-8.97,1.42-17.88,1.98-26.76-.47-18.88-5.22-29.88-19.95-29.98-40.72-.14-29.38-.18-58.76,.09-88.14,.05-5.63-1.51-7.64-7.17-7.07-4.69,.47-9.49-.14-14.21,.17-4.38,.28-6.19-.82-6.24-5.75-.2-18.51-.39-18.46,18.32-18.53,10.23-.04,9.12,1.18,9.17-9.04,.05-9.95,.16-19.91-.06-29.85-.09-4.03,1.28-5.5,5.31-5.28,4.96,.27,9.97,.35,14.92-.01,4.88-.36,6.7,1.21,6.54,6.31-.34,10.65,.1,21.33-.2,31.98-.13,4.62,1.27,6.19,5.98,6.01,9-.34,18.01,.02,27.02-.15,3.62-.07,4.84,1.14,5.06,4.85,1.13,19.41,1.23,19.4-18.12,19.4-5.22,0-10.43,.11-15.64-.04-3.02-.09-4.23,1.04-4.21,4.1,.13,29.61-.34,59.24,.47,88.84,.44,15.85,13.71,23.61,29.46,18.71,2.67-.83,5.21-2.05,8.73-3.46Z"/>
  <path class="cls-1" d="M1053.84,276.02c0,6.66-.5,12.39,.13,17.99,.7,6.28-1.93,9.05-7.71,10.14-9.9,1.87-19.65,2.52-29.49-.63-18.3-5.85-28.4-19.47-28.49-39.56-.13-29.17-.29-58.34,.15-87.5,.11-7.12-2.09-9.43-8.74-8.24-.23,.04-.47,0-.71,0-20,0-19.92,.01-17.87-20.26,.32-3.11,1.43-4.06,4.36-3.97,5.22,.15,10.46-.28,15.65,.13,5.38,.43,7.54-1.03,7.26-6.92-.5-10.65,0-21.34-.21-32-.07-3.88,.98-5.26,5.15-5.39,21.44-.64,21.43-.77,21.43,20.5,0,6.17,.19,12.34-.06,18.49-.17,3.99,1.16,5.44,5.26,5.32,9.01-.26,18.04,.14,27.04-.18,4.43-.15,5.57,1.37,5.66,5.66,.38,18.64,.52,18.64-18.19,18.64-4.27,0-8.59,.41-12.8-.1-5.99-.73-7.06,1.96-7.01,7.27,.22,26.56,.09,53.12,.11,79.68,0,1.89,.11,3.79,.32,5.67,1.93,16.85,14.36,24.5,30.55,18.77,2.41-.85,4.72-2.01,8.2-3.5Z"/>
  <path class="cls-1" d="M201.27,274.46c-18.74,18.54-37.49,37.08-56.2,55.65-.63,.63-.89,1.63-1.32,2.46-18.45-18.34-36.87-36.7-55.38-54.97-2.4-2.37-3.29-3.94-.38-6.78,18.44-18.01,36.7-36.19,55.02-54.32,17.33,17.12,34.66,34.25,52.02,51.34,2.01,1.97,4.24,3.72,6.37,5.57,.07,.37,.03,.72-.13,1.06Z"/>
  <path class="cls-1" d="M1274.8,167.73c13.04-23.68,39.44-32.04,58.83-26.86,4.5,1.2,6.88,2.92,6.43,8.11-.51,5.88-.2,11.84-.09,17.76,.06,3.07-.42,4-4,3.03-35.09-9.52-59.73,9.68-59.73,46.33,0,26.06-.16,52.12,.13,78.18,.06,5.34-1.58,6.76-6.71,6.99-20.2,.91-20.2,1.07-20.2-18.85,0-43.35,.11-86.71-.13-130.06-.03-5.95,1.09-8.3,7.71-8.15,17.7,.4,17.71,.07,17.75,17.98,0,1.85,0,3.7,0,5.55Z"/>
  <path class="cls-1" d="M622.96,190.74c0-33.89,.18-67.79-.16-101.67-.06-6.41,1.83-7.93,8.01-7.81,18.59,.36,18.59,.1,18.59,18.4,0,64.23-.07,128.46,.12,192.69,.02,6.12-.99,9.31-7.98,8.34-5.82-.81-13.52,2.4-17.18-1.17-4.01-3.91-1.31-11.69-1.34-17.76-.14-30.34-.06-60.67-.06-91.01Z"/>
  <path class="cls-1" d="M1100.95,227.47c18.5,.26,37,.1,55.51,.1,18.74,0,37.48-.14,56.22,.1,4.89,.06,6.79-1.38,6.64-6.4-.22-7.34,0-14.68-1.55-21.93-6.04-28.44-21.47-49.17-50.26-56.92-29.63-7.98-56.58-2.55-77.71,21.33-17.42,19.68-22.15,43.34-20.43,68.92,2.22,32.87,24.3,62.55,54.63,69.77,33.03,7.86,66.65-.37,87.36-30.71q5.29-7.75-3.35-12.02c-2.97-1.47-6.17-2.58-8.91-4.41-3.99-2.66-5.89-1.21-8.39,2.34-13.65,19.38-33.94,27.42-54.92,22.19-22.09-5.51-37.24-23.04-40.31-46.27-.62-4.66,.62-6.16,5.47-6.09Zm-3.24-25.34c4.24-20.81,22.43-37.37,42.86-38.45,25.02-1.33,42.73,10.43,49.33,32.76,2.84,9.62,2.73,9.78-7.29,9.78-13.03,0-26.06,0-39.09,0-13.98,0-27.95-.02-41.93,.02-2.87,0-4.77,.24-3.88-4.1Z"/>
</svg>