<?xml version="1.0" encoding="UTF-8"?>
<svg id="Layer_1" data-name="Layer 1" xmlns="http://www.w3.org/2000/svg" viewBox="0 0 1278.21 431.77">
  <defs>
    <style>
      .cls-1 {
        fill: #afb2b8;
      }
    </style>
  </defs>
  <path class="cls-1" d="M232.87,0c10.1,1.85,20.36,2.61,30.4,4.92,18.25,4.2,35.68,10.54,52.34,19.08,2.51,1.29,4.05,2.14,.8,4.6-9.07,6.88-15.86,15.69-20.27,26.15-1.38,3.27-2.77,2.63-5.16,1.53-26.3-12.14-53.92-17.88-82.89-16.33-47.37,2.53-87.64,20.89-120.2,55.36-27.79,29.42-43.66,64.51-47.11,104.91-7.23,84.61,43.89,161.08,125.27,184.8,61.77,18,118.08,5.14,166.86-36.86,34.52-29.73,53.49-68.27,58.7-113.38,3.32-28.76-.66-56.75-11.59-83.61-1.81-4.44-1.43-6.35,3.4-8.06,9.58-3.39,17.51-9.56,24.14-17.21,2.65-3.06,3.68-3.18,5.44,.76,9.59,21.6,15.8,44.06,18.04,67.61,4.34,45.58-4.19,88.62-27.2,128.18-34.32,59-85.55,94.43-152.87,106.37-6.66,1.18-13.39,1.97-20.09,2.94h-28c-4.02-1.31-8.21-.54-12.31-.84-28.67-2.11-54.96-11.72-79.8-25.47-38.53-21.34-67.76-51.92-87.83-91.05-11.48-22.39-19.79-46.14-21.7-71.27-2.44-32.11-2.07-64.2,8.79-95.26,8.93-25.56,21.46-49.01,38.63-70.04,20.91-25.61,46.28-45.41,76.23-59.25C147.12,8.32,170.29,1.29,195.02,.52c.67-.02,1.33-.01,1.85-.52h36Z"/>
  <path class="cls-1" d="M216.7,314.1c-54.35,.13-98.54-43.58-98.71-97.65-.17-54.57,43.59-98.66,98.06-98.78,54.52-.12,98.69,43.78,98.72,98.15,.04,54.22-43.79,98.14-98.07,98.28Z"/>
  <path class="cls-1" d="M866.76,141.91c15.23-12.41,31.49-21.15,50.28-23.37,25.92-3.06,50.35,.62,69.49,20.67,12.45,13.04,17.7,29.4,20.29,46.83,1.67,11.26,1.25,22.59,1.27,33.9,.05,28.31-.05,56.61,.09,84.92,.02,3.77-.79,5.18-4.89,5.09-11.99-.28-23.99-.28-35.98,0-3.91,.09-4.61-1.21-4.6-4.8,.13-33.8,.06-67.6,.09-101.4,0-11.78-2.61-22.77-9.65-32.41-9.64-13.21-22.65-18.01-38.55-14.8-13.42,2.7-25,8.93-34.29,19.11-5.7,6.25-8.81,13.41-8.77,22.12,.16,35.46-.02,70.93,.16,106.39,.02,4.48-1,5.95-5.7,5.81-11.98-.36-23.99-.23-35.98-.05-3.27,.05-4.21-.91-4.2-4.19,.09-59.94,.08-119.88,.01-179.82,0-2.92,.6-4.12,3.83-4.05,10.16,.2,20.33,.23,30.48-.02,3.2-.08,4.01,1.33,4.35,3.94,.66,5.1,1.42,10.19,2.26,16.14Z"/>
  <path class="cls-1" d="M1199.45,117.52c32.76,.95,57.78,16.35,77.54,41.65,2,2.56,1.46,3.69-1.06,5.31-8.81,5.68-17.56,11.47-26.13,17.51-2.88,2.03-4.22,1.59-6.28-1.07-9.21-11.89-20.5-21.07-35.68-23.91-25.53-4.78-50.15,8.86-60.25,32.95-11,26.26-4.07,57.6,16.32,73.71,21.42,16.94,49.56,16.01,69.87-2.38,2.83-2.56,5.47-5.37,7.97-8.26,4.6-5.31,4.54-5.39,10.57-1.37,7.62,5.08,15.12,10.34,22.86,15.22,3.08,1.94,3.58,3.25,1.21,6.35-43.49,56.9-113.6,50.06-151.12,8.57-25.25-27.92-31.83-61.11-20.32-96.74,11.46-35.51,36.87-56.75,73.1-65.21,7.01-1.64,14.12-2.24,21.4-2.33Z"/>
  <path class="cls-1" d="M543.06,215.88c0-29.31,.16-58.62-.15-87.92-.06-5.31,1.58-6.28,6.41-6.14,11.82,.34,23.66,.19,35.48,.06,2.93-.03,4.04,.64,4.03,3.84-.09,60.12-.09,120.23,0,180.35,0,3.19-1.11,3.87-4.03,3.84-12.49-.13-24.99-.2-37.48,.03-3.71,.07-4.34-1.31-4.33-4.62,.11-29.81,.07-59.62,.07-89.42Z"/>
  <path class="cls-1" d="M1034.08,215.89c0-29.48,.08-58.96-.09-88.43-.02-4.16,.67-5.8,5.36-5.66,12.15,.38,24.32,.21,36.48,.07,2.92-.03,4.03,.59,4.03,3.82-.1,60.12-.1,120.24,0,180.36,0,3.21-1.07,3.87-4.01,3.84-12.49-.14-24.99-.2-37.49,.03-3.68,.07-4.36-1.27-4.35-4.6,.11-29.81,.07-59.62,.07-89.43Z"/>
  <path class="cls-1" d="M402.17,81.22c.09,25.02-19.51,44.79-44.43,44.84-24.64,.04-44.79-19.7-44.88-44-.1-25.36,19.43-45.22,44.54-45.29,25.08-.07,44.68,19.39,44.76,44.45Z"/>
  <path class="cls-1" d="M706.85,117.64c-54.48-.1-97.82,42.67-97.97,96.68-.16,56.71,42.23,99.6,98.62,99.78,55.34,.18,98.02-42.13,98.18-97.33,.17-57.17-41.56-99.02-98.82-99.12Zm55.96,98.23c.01,27.76-16.68,51.25-41.12,57.87-30.05,8.14-60.8-10.68-67.72-41.58-4.7-20.99-1.71-40.66,12.7-57.13,14.46-16.54,33.18-22.56,54.57-16.96,21.19,5.55,33.84,20.18,39.5,41.03,1.48,5.46,2.27,11.08,2.07,16.78Z"/>
</svg>