<svg xmlns="http://www.w3.org/2000/svg" width="114" height="28.681" viewBox="0 0 114 28.681">
  <g id="mongodb-logo-vector-2022" transform="translate(-19.019 359)">
    <path id="Path_20" data-name="Path 20" d="M24.175-357.73c-3.28,4.193-4.457,6.4-4.96,9.272-.754,4.312.675,8.4,4.18,11.931,1.071,1.071,1.177,1.23,1.177,1.693,0,.278.04.9.093,1.389l.079.9h.436c.344,0,.45-.053.45-.238,0-.119.066-.78.132-1.455l.132-1.23,1.164-1.151c4.457-4.4,5.529-10,2.95-15.436a23.416,23.416,0,0,0-3.122-4.828c-.714-.913-1.362-1.759-1.442-1.891s-.172-.225-.212-.225A12.334,12.334,0,0,0,24.175-357.73Zm1.389,14.7.3,6.587-.317.331-.317.331-.331-.344-.344-.331.3-6.64c.159-3.637.317-6.6.344-6.574S25.392-346.659,25.564-343.035Z" fill="#afb2b8"/>
    <path id="Path_21" data-name="Path 21" d="M160.132-289.69c0,.357.04.4.384.4.807,0,.807.013.807,4.471,0,5.278-.119,7.791-.357,8.042a.954.954,0,0,1-.582.185c-.317,0-.384.053-.384.331v.331h3.439v-.331c0-.2-.079-.331-.185-.331a.962.962,0,0,1-.463-.238c-.278-.225-.278-.251-.251-5.569l.04-5.344,2.5,6.031c1.389,3.32,2.592,6.071,2.685,6.1a.512.512,0,0,0,.344,0c.093-.026,1.27-2.712,2.606-5.939a51.9,51.9,0,0,1,2.54-5.714c.053.093.106,2.421.106,5.2,0,4.709-.013,5.053-.238,5.251a.858.858,0,0,1-.529.225c-.225,0-.291.079-.291.331v.331h4.1v-.331c0-.278-.066-.331-.37-.331-.833,0-.82.119-.82-6.389,0-6.481-.026-6.309.807-6.309.344,0,.384-.04.384-.4v-.41l-1.733.04-1.733.04-2.262,5.516c-1.257,3.029-2.315,5.542-2.354,5.582s-1.111-2.447-2.368-5.542l-2.3-5.621h-3.518Z" transform="translate(-122.334 -59.787)" fill="#afb2b8"/>
    <path id="Path_22" data-name="Path 22" d="M665-289.6c0,.344.053.4.37.4a.936.936,0,0,1,.635.278c.238.265.251.556.251,6.1v5.82l-.317.251a1.242,1.242,0,0,1-.622.251c-.251,0-.317.066-.317.331v.331h2.976a32.446,32.446,0,0,0,3.664-.146,6.794,6.794,0,0,0,4.894-4.3,6.5,6.5,0,0,0,.291-2.5,6.35,6.35,0,0,0-.291-2.619,6.619,6.619,0,0,0-5.344-4.457c-.463-.066-2.037-.132-3.505-.132H665Zm6.812,1.058c1.931.754,3.1,2.87,3.108,5.648a6.244,6.244,0,0,1-1.521,4.51,4.529,4.529,0,0,1-3.479,1.455c-1.9.093-1.746.648-1.746-6.005v-5.595l.3-.212C668.9-289.061,670.754-288.942,671.812-288.545Z" transform="translate(-560.538 -59.873)" fill="#afb2b8"/>
    <path id="Path_23" data-name="Path 23" d="M765.132-289.6c0,.331.053.4.317.4a.854.854,0,0,1,.6.344c.278.344.278.489.278,6.031v5.674l-.331.317a1.089,1.089,0,0,1-.661.331c-.265,0-.331.066-.331.331v.331h3.611c3.783,0,4.365-.066,5.463-.635a3.466,3.466,0,0,0,1.693-1.64,3.193,3.193,0,0,0,.344-1.733,2.84,2.84,0,0,0-.344-1.693,3.431,3.431,0,0,0-2.05-1.574l-.675-.225.476-.291c2.817-1.746,1.812-5.582-1.627-6.23-.4-.066-2.077-.132-3.73-.132h-3.029Zm6.137.794a2.606,2.606,0,0,1,1.812,3.307c-.384,1.415-1.2,1.852-3.545,1.852h-1.362V-288.4l.344-.265c.278-.225.542-.278,1.3-.278A8.041,8.041,0,0,1,771.27-288.81Zm1.336,6.468a2.937,2.937,0,0,1,1.653,2.473,3.223,3.223,0,0,1-.979,2.143c-.741.688-1.257.82-3.148.82-2.063,0-1.958.172-1.958-3.135v-2.553h1.958A5.885,5.885,0,0,1,772.605-282.342Z" transform="translate(-647.311 -59.873)" fill="#afb2b8"/>
    <path id="Path_24" data-name="Path 24" d="M302.4-260.5a5.233,5.233,0,0,0-3.545,2.883,4.088,4.088,0,0,0-.357,2.275,3.9,3.9,0,0,0,.436,2.407,5.275,5.275,0,0,0,2.645,2.5,6.525,6.525,0,0,0,4.021,0,5.328,5.328,0,0,0,2.645-2.5,3.806,3.806,0,0,0,.436-2.407,4.088,4.088,0,0,0-.357-2.275,5.094,5.094,0,0,0-4.352-2.95A8.1,8.1,0,0,0,302.4-260.5Zm2.592,1.309a3.841,3.841,0,0,1,1.733,2.05,7.066,7.066,0,0,1-.013,3.637,3.847,3.847,0,0,1-1.719,2.037,3.528,3.528,0,0,1-2.791,0,3.642,3.642,0,0,1-1.918-2.791c-.423-2.143.436-4.312,1.984-4.973A4.365,4.365,0,0,1,304.994-259.191Z" transform="translate(-242.514 -85.405)" fill="#afb2b8"/>
    <path id="Path_25" data-name="Path 25" d="M397.026-260.694a3.925,3.925,0,0,0-1.971,1.243c-.423.516-.45.5-.675-.463-.2-.847-.37-.873-1.548-.225-.582.331-.833.556-.833.727a.237.237,0,0,0,.265.265.915.915,0,0,1,.529.265c.251.251.265.436.265,3.558a28.326,28.326,0,0,1-.132,3.651.645.645,0,0,1-.529.41c-.3.066-.4.159-.4.4v.317h3.7v-.331c0-.238-.066-.331-.265-.331a.931.931,0,0,1-.542-.278c-.265-.265-.278-.384-.225-2.936.04-2.46.066-2.725.357-3.36A4.374,4.374,0,0,1,395.9-259c1.362-1.257,3.452-.86,3.889.727a27.713,27.713,0,0,1,.146,3.584c0,3.016,0,3.069-.291,3.267a1.085,1.085,0,0,1-.529.212c-.172,0-.238.106-.238.331v.331h3.836v-.331c0-.238-.066-.331-.251-.331a1.033,1.033,0,0,1-.529-.238c-.265-.212-.278-.37-.3-3.743l-.04-3.518-.4-.648A3.818,3.818,0,0,0,397.026-260.694Z" transform="translate(-323.647 -85.171)" fill="#afb2b8"/>
    <path id="Path_26" data-name="Path 26" d="M490.479-260.469a4.307,4.307,0,0,0-2.9,2.143,2.813,2.813,0,0,0-.384,1.759,2.9,2.9,0,0,0,1.005,2.513l.5.529-.78,1.058c-.82,1.111-.966,1.6-.582,1.971a.833.833,0,0,0,.542.212h.331l-.423.489a2.782,2.782,0,0,0-.794,1.958c0,1.719,1.389,2.8,3.77,2.936a6.406,6.406,0,0,0,4.815-1.362,2.884,2.884,0,0,0,1.1-2.354A2.36,2.36,0,0,0,495-251.1c-.608-.278-.913-.3-3.465-.37l-2.8-.066.529-.7c.489-.648.582-.7.9-.6a8.185,8.185,0,0,0,1.468.106,3.736,3.736,0,0,0,1.958-.384,3.78,3.78,0,0,0,1.362-6.071l-.344-.384.661.093c.37.04.86.106,1.1.146.423.066.423.053.423-.45v-.529l-2.209-.079c-1.23-.04-2.513-.106-2.883-.132A4.6,4.6,0,0,0,490.479-260.469Zm2.5,1.442a2.557,2.557,0,0,1,1.164,2.407,2.63,2.63,0,0,1-1.839,2.751,2.047,2.047,0,0,1-1.852-.2,2.362,2.362,0,0,1-1.428-2.209,2.772,2.772,0,0,1,.675-2.328,2.352,2.352,0,0,1,1.944-.807A2.085,2.085,0,0,1,492.979-259.028Zm.794,8.875c1.323.37,1.561,2.143.463,3.254-1.653,1.653-5.211,1.1-5.476-.847a2.114,2.114,0,0,1,.635-2.024l.516-.516H491.6A14.079,14.079,0,0,1,493.772-250.152Z" transform="translate(-406.082 -85.436)" fill="#afb2b8"/>
    <path id="Path_27" data-name="Path 27" d="M578.428-260.5a5.415,5.415,0,0,0-3.571,2.883,4.088,4.088,0,0,0-.357,2.275,4.088,4.088,0,0,0,.357,2.275,5.293,5.293,0,0,0,8.492,1.468,5.387,5.387,0,0,0,1.389-4.59,5.186,5.186,0,0,0-3.108-4.034A7.164,7.164,0,0,0,578.428-260.5Zm2.712,1.376a4.3,4.3,0,0,1,1.852,4.259c-.172,2.222-1.415,3.624-3.267,3.664a3.3,3.3,0,0,1-3.254-2.328,7.092,7.092,0,0,1-.013-3.532,3.8,3.8,0,0,1,1.587-2.063A3.719,3.719,0,0,1,581.14-259.122Z" transform="translate(-482.008 -85.408)" fill="#afb2b8"/>
    <path id="Path_28" data-name="Path 28" d="M861.725-201.834a1.251,1.251,0,0,0,.661,2.341,1.111,1.111,0,0,0,.952-.4.873.873,0,0,0,.331-.966A1.283,1.283,0,0,0,861.725-201.834Zm1.389.265a1.122,1.122,0,0,1-.727,1.944,1.257,1.257,0,0,1-.727-.3,1.122,1.122,0,0,1,.727-1.944A1.257,1.257,0,0,1,863.114-201.57Z" transform="translate(-730.677 -136.228)" fill="#afb2b8"/>
    <path id="Path_29" data-name="Path 29" d="M867.5-197.339c0,.529.04.661.225.661.159,0,.2-.079.146-.3l-.066-.291.212.291c.291.384.542.41.344.026a.361.361,0,0,1,.013-.476c.146-.172.132-.238-.079-.384a.98.98,0,0,0-.516-.185C867.54-198,867.5-197.921,867.5-197.339Zm.661-.265a.264.264,0,0,1-.159.225c-.106.04-.172-.053-.172-.225s.066-.265.172-.238A.3.3,0,0,1,868.161-197.6Z" transform="translate(-736.253 -139.705)" fill="#afb2b8"/>
  </g>
</svg>
