<svg fill="none" height="50" viewBox="0 0 140 50" width="140" xmlns="http://www.w3.org/2000/svg"><g clip-rule="evenodd" fill="#afb2b8" fill-rule="evenodd"><path d="m60.6197 9.00004c-.0831.00101-.1672.02067-.2414.06381-.1482.0862-.2415.24451-.2415.41474v12.20291c0 .1199-.0563.227-.161.2872-.1048.0603-.2328.0603-.338 0l-2.0121-1.1485c-.2997-.1714-.6659-.1713-.9657 0l-8.0322 4.594c-.3003.1717-.4829.5019-.4829.8454v9.1881c0 .3432.1828.6575.4829.8295l8.0322 4.594c.3003.1717.6654.1717.9657 0l8.0322-4.594c.3001-.172.4829-.4863.4829-.8295v-22.9064c0-.3485-.1918-.6755-.499-.8454l-4.7806-2.648c-.0751-.0415-.1583-.04875-.2415-.04783zm-51.67 11.46916c-.15317.0061-.29708.0326-.43461.1117l-8.032193 4.594c-.299293.1715-.482897.4838-.482897.8295l.0160621 12.3305c0 .1715.0892859.3308.2414499.4148.149143.0884.334258.0884.482897 0l4.764591-2.7118c.30181-.1777.49899-.4868.49899-.8295v-5.7585c0-.3435.18233-.6587.4829-.8295l2.02817-1.1644c.15137-.0867.31388-.1276.48289-.1276.16554 0 .33571.0408.4829.1276l2.02815 1.1644c.3006.1708.4829.486.4829.8295v5.7585c0 .3427.1992.6538.499.8295l4.7646 2.7118c.1496.0884.3345.0884.4829 0 .1479-.084.2414-.2433.2414-.4148l.0161-12.3305c0-.3457-.1816-.658-.4829-.8295l-8.03217-4.594c-.13585-.0791-.2804-.1055-.4346-.1117h-.09658zm72.177.1117c-.1678-.0002-.3322.0418-.4829.1276l-8.0321 4.594c-.3001.1717-.4829.486-.4829.8295v9.1881c0 .3454.1963.6587.499.8295l7.9678 4.4983c.2942.1665.6535.179.9497.0158l4.8289-2.6639c.1533-.0843.2569-.2416.2576-.4148.001-.1732-.0902-.3285-.2415-.4147l-8.0804-4.5941c-.1514-.0855-.2576-.2587-.2576-.4307v-2.8712c0-.1717.1075-.329.2576-.4147l2.511-1.4357c.1494-.0857.3329-.0857.4829 0l2.5111 1.4357c.15.0857.2414.243.2414.4147v2.2651c0 .1719.0915.329.2415.4147.1506.086.3329.0863.4829 0l4.8128-2.7755c.2988-.172.4829-.4871.4829-.8295v-2.2173c0-.3424-.1835-.6575-.4829-.8295l-7.9839-4.594c-.1503-.0864-.315-.1274-.4829-.1276zm-24.016 6.8591c.0418 0 .0911.0102.1287.0317l2.7525 1.5792c.0747.0429.1288.1218.1288.2073v3.1584c0 .0858-.0536.1648-.1288.2074l-2.7525 1.5792c-.0749.0424-.1665.0424-.2414 0l-2.7525-1.5792c-.075-.0428-.1288-.1216-.1288-.2074v-3.1584c0-.0855.0541-.1642.1288-.2073l2.7525-1.579c.0376-.0214.0708-.0316.1127-.0316z"/><path d="m105.191 20.3574c-.279 0-.549.0571-.789.1914l-7.5815 4.3389c-.4906.2799-.7887.809-.7887 1.3718v8.6617c0 .5625.2981 1.091.7887 1.3718l1.9799 1.1326c.9619.4698 1.3166.4625 1.7546.4625 1.424 0 2.237-.8564 2.237-2.3448v-8.55c0-.1209-.105-.2074-.225-.2074h-.95c-.121 0-.225.0865-.225.2074v8.55c0 .6597-.694 1.3232-1.819.7657l-2.0603-1.1964c-.0728-.0393-.1288-.1087-.1288-.1914v-8.6617c0-.0822.0554-.1658.1288-.2074l7.5653-4.3228c.071-.0404.155-.0404.225 0l7.566 4.3228c.072.0429.129.1227.129.2074v8.6617c0 .0827-.042.1675-.113.2073l-7.582 4.3229c-.065.0383-.154.0383-.225 0l-1.948-1.1485c-.058-.0337-.137-.0311-.193 0-.537.3021-.638.3372-1.143.5105-.124.0428-.313.1096.065.319l2.543 1.4835c.242.1388.512.2073.789.2073.28 0 .546-.0685.788-.2073l7.582-4.3229c.491-.2828.789-.8093.789-1.3718v-8.6617c0-.5628-.298-1.0907-.789-1.3718l-7.582-4.3389c-.237-.1343-.51-.1914-.788-.1914zm-72.1129.1755c-.1674 0-.333.0418-.4829.1276l-8.0322 4.5781c-.3003.1715-.4829.5022-.4829.8454v9.1881c0 .3436.1828.6576.4829.8295l8.0322 4.594c.3003.1719.6655.1719.9658 0l8.0321-4.594c.2998-.1719.483-.4859.483-.8295v-9.1881c0-.3437-.1827-.6739-.483-.8454l-8.0321-4.5781c-.1499-.0858-.3156-.1276-.4829-.1276zm83.3639.048v.2233h.628v1.643h.258v-1.643h.643v-.2233zm1.755 0v1.8663h.241v-1.1007c0-.0449.002-.1144 0-.2073-.003-.0947 0-.1772 0-.2234v-.048l.531 1.5792h.258l.547-1.5792c0 .1005-.013.1975-.016.2871-.001.0873 0 .1529 0 .1915v1.1006h.242v-1.8663h-.355l-.547 1.5792-.531-1.5792h-.37zm-10.978 5.9658c-2.159 0-3.445.9105-3.445 2.4247 0 1.6425 1.276 2.0938 3.348 2.297 2.479.2405 2.672.6011 2.672 1.0847 0 .8387-.674 1.1963-2.269 1.1963-2.004 0-2.444-.4957-2.592-1.4834-.017-.106-.1-.1915-.209-.1915h-.982c-.121 0-.225.1032-.225.2233 0 1.2644.694 2.7597 4.008 2.7597 2.399 0 3.782-.9332 3.782-2.5682 0-1.6209-1.117-2.056-3.444-2.3609-2.352-.3083-2.576-.4591-2.576-1.0049 0-.4504.19-1.0528 1.932-1.0528 1.555 0 2.13.3324 2.366 1.3719.021.0977.108.1754.209.1754h.982c.061 0 .119-.0368.161-.0798.041-.0459.07-.0977.065-.1595-.152-1.79-1.357-2.632-3.783-2.632zm-26.1088 2.1854c-.032 0-.0675 0-.0965.0158l-1.5453.8933c-.058.0327-.0966.0935-.0966.1595v1.7547c0 .066.0386.1266.0966.1595l1.5453.8773c.0579.0332.1197.0332.177 0l1.5453-.8773c.0573-.0327.0966-.0935.0966-.1595v-1.7547c0-.066-.0393-.1266-.0966-.1595l-1.5453-.8933c-.0286-.0168-.0483-.0158-.0805-.0158z"/></g></svg>