<svg xmlns="http://www.w3.org/2000/svg" viewBox="0 0 100 100"><path d="m83 74.4-6.1-6.1c-.2-.3-.4-.6-.4-1V43.5c0-12.4-8.6-22.9-20.1-25.8 1-1.3 1.6-3 1.6-4.8 0-4.4-3.6-8-8-8s-8 3.6-8 8c0 1.8.6 3.5 1.6 4.8C32 20.6 23.5 31.1 23.5 43.5v23.8c0 .4-.2.7-.4 1L17 74.4c-1.3 1.3-2 3-2 4.8 0 3.8 3 6.8 6.8 6.8h17.4c1 5.1 5.4 9 10.8 9s9.9-3.9 10.8-9h17.4c3.8 0 6.8-3 6.8-6.8 0-1.8-.7-3.5-2-4.8zM50 9c2.2 0 4 1.8 4 4s-1.8 4-4 4-4-1.8-4-4 1.8-4 4-4zM27.5 43.5C27.5 31.1 37.6 21 50 21s22.5 10.1 22.5 22.5V63h-45V43.5zM50 91c-3.2 0-5.8-2.1-6.7-5h13.4c-.9 2.9-3.5 5-6.7 5zm28.2-9H21.8c-1.5 0-2.8-1.2-2.8-2.8 0-.7.3-1.4.8-2l6.1-6.1c1-1 1.6-2.4 1.6-3.8V67h45.1v.4c0 1.4.6 2.8 1.6 3.8l6.1 6.1c.5.5.8 1.2.8 2-.1 1.5-1.3 2.7-2.9 2.7z"/></svg>