<?xml version="1.0" encoding="utf-8"?>
<!-- Generator: Adobe Illustrator 27.0.0, SVG Export Plug-In . SVG Version: 6.00 Build 0)  -->
<svg version="1.1" id="Layer_1" xmlns="http://www.w3.org/2000/svg" xmlns:xlink="http://www.w3.org/1999/xlink" x="0px" y="0px"
	 viewBox="0 0 177 177" style="enable-background:new 0 0 177 177;" xml:space="preserve">
<style type="text/css">
	.st0{fill:#FFFFFF;filter:url(#Adobe_OpacityMaskFilter);}
	.st1{mask:url(#mask0_202_406_00000073710159684084256200000001587071044784602300_);}
	.st2{fill:#BE0101;}
</style>
<defs>
	<filter id="Adobe_OpacityMaskFilter" filterUnits="userSpaceOnUse" x="-4" y="-13" width="184.1" height="184.1">
		<feColorMatrix  type="matrix" values="1 0 0 0 0  0 1 0 0 0  0 0 1 0 0  0 0 0 1 0"/>
	</filter>
</defs>
<mask maskUnits="userSpaceOnUse" x="-4" y="-13" width="184.1" height="184.1" id="mask0_202_406_00000073710159684084256200000001587071044784602300_">
	<ellipse transform="matrix(0.7071 -0.7071 0.7071 0.7071 -36.4987 88.427)" class="st0" cx="88.5" cy="88.3" rx="62.2" ry="62.2"/>
</mask>
<g class="st1">
	
		<rect x="132" y="-31.8" transform="matrix(0.7071 -0.7071 0.7071 0.7071 14.6462 103.9328)" class="st2" width="1.6" height="132.1"/>
	
		<rect x="125.4" y="-25.2" transform="matrix(0.7071 -0.7071 0.7071 0.7071 8.0523 101.2016)" class="st2" width="1.6" height="132.1"/>
	
		<rect x="119.4" y="-19.1" transform="matrix(0.7071 -0.7071 0.7071 0.7071 2.0082 98.6982)" class="st2" width="1.6" height="132.1"/>
	
		<rect x="112.8" y="-12.5" transform="matrix(0.7071 -0.7071 0.7071 0.7071 -4.5857 95.9666)" class="st2" width="1.6" height="132.1"/>
	
		<rect x="106.2" y="-5.9" transform="matrix(0.7071 -0.7071 0.7071 0.7071 -11.1799 93.2352)" class="st2" width="1.6" height="132.1"/>
	
		<rect x="100.1" y="0.1" transform="matrix(0.7071 -0.7071 0.7071 0.7071 -17.224 90.7318)" class="st2" width="1.6" height="132.1"/>
	
		<rect x="93.5" y="6.7" transform="matrix(0.7071 -0.7071 0.7071 0.7071 -23.8178 88.0006)" class="st2" width="1.6" height="132.1"/>
	
		<rect x="86.9" y="13.3" transform="matrix(0.7071 -0.7071 0.7071 0.7071 -30.412 85.2691)" class="st2" width="1.6" height="132.1"/>
	
		<rect x="80.9" y="19.3" transform="matrix(0.7071 -0.7071 0.7071 0.7071 -36.4563 82.7654)" class="st2" width="1.6" height="132.1"/>
	
		<rect x="74.3" y="25.9" transform="matrix(0.7071 -0.7071 0.7071 0.7071 -43.0501 80.0342)" class="st2" width="1.6" height="132.1"/>
	
		<rect x="67.7" y="32.5" transform="matrix(0.7071 -0.7071 0.7071 0.7071 -49.6441 77.3031)" class="st2" width="1.6" height="132.1"/>
	<rect x="62.2" y="38" transform="matrix(0.7071 -0.7071 0.7071 0.7071 -55.139 75.0273)" class="st2" width="1.6" height="132.1"/>
	
		<rect x="55.1" y="45.2" transform="matrix(0.7071 -0.7071 0.7071 0.7071 -62.2821 72.0681)" class="st2" width="1.6" height="132.1"/>
	
		<rect x="49" y="51.2" transform="matrix(0.7071 -0.7071 0.7071 0.7071 -68.3267 69.5645)" class="st2" width="1.6" height="132.1"/>
	
		<rect x="42.4" y="57.8" transform="matrix(0.7071 -0.7071 0.7071 0.7071 -74.9205 66.8333)" class="st2" width="1.6" height="132.1"/>
</g>
</svg>
