<?xml version="1.0" encoding="utf-8"?>
<!-- Generator: Adobe Illustrator 27.0.0, SVG Export Plug-In . SVG Version: 6.00 Build 0)  -->
<svg version="1.1" id="Layer_1" xmlns="http://www.w3.org/2000/svg" xmlns:xlink="http://www.w3.org/1999/xlink" x="0px" y="0px"
	 viewBox="0 0 143 144" style="enable-background:new 0 0 143 144;" xml:space="preserve">
<style type="text/css">
	.st0{fill-rule:evenodd;clip-rule:evenodd;fill:#FFFFFF;filter:url(#Adobe_OpacityMaskFilter);}
	.st1{mask:url(#mask0_202_448_00000103983976746262040990000014030999482887800995_);}
	.st2{fill:#18EF92;}
</style>
<defs>
	<filter id="Adobe_OpacityMaskFilter" filterUnits="userSpaceOnUse" x="-9.7" y="-30" width="195.6" height="191.8">
		<feColorMatrix  type="matrix" values="1 0 0 0 0  0 1 0 0 0  0 0 1 0 0  0 0 0 1 0"/>
	</filter>
</defs>
<mask maskUnits="userSpaceOnUse" x="-9.7" y="-30" width="195.6" height="191.8" id="mask0_202_448_00000103983976746262040990000014030999482887800995_">
	<path class="st0" d="M129.6,84.6c0.8,0,1.3-0.9,0.8-1.6L70.5,2.2c-0.4-0.5-1.2-0.5-1.6,0L12,79.8c-0.5,0.7,0,1.6,0.8,1.6
		L129.6,84.6z"/>
</mask>
<g class="st1">
	
		<rect x="80.9" y="105.8" transform="matrix(0.5736 -0.8192 0.8192 0.5736 -24.8715 166.0947)" class="st2" width="132.3" height="2.3"/>
	
		<rect x="71.1" y="99.3" transform="matrix(0.5736 -0.8192 0.8192 0.5736 -23.6951 155.2626)" class="st2" width="132.3" height="2.3"/>
	
		<rect x="63.5" y="93.4" transform="matrix(0.5736 -0.8192 0.8192 0.5736 -22.1379 146.483)" class="st2" width="132.3" height="2.3"/>
	
		<rect x="53.7" y="86.8" transform="matrix(0.5736 -0.8192 0.8192 0.5736 -20.9615 135.6509)" class="st2" width="132.3" height="2.3"/>
	
		<rect x="43.8" y="80.3" transform="matrix(0.5736 -0.8192 0.8192 0.5736 -19.7852 124.8188)" class="st2" width="132.3" height="2.3"/>
	
		<rect x="36.2" y="74.4" transform="matrix(0.5736 -0.8192 0.8192 0.5736 -18.2279 116.0393)" class="st2" width="132.3" height="2.3"/>
	
		<rect x="26.4" y="67.9" transform="matrix(0.5736 -0.8192 0.8192 0.5736 -17.0515 105.2071)" class="st2" width="132.3" height="2.3"/>
	
		<rect x="18" y="60.2" transform="matrix(0.5736 -0.8192 0.8192 0.5736 -14.3661 95.1105)" class="st2" width="132.3" height="2.3"/>
	
		<rect x="7.8" y="55.4" transform="matrix(0.5736 -0.8192 0.8192 0.5736 -14.7999 84.6699)" class="st2" width="132.3" height="2.3"/>
	
		<rect x="-0.9" y="48.9" transform="matrix(0.5736 -0.8192 0.8192 0.5736 -13.1414 74.7632)" class="st2" width="132.3" height="2.3"/>
	
		<rect x="-9.3" y="41.2" transform="matrix(0.5736 -0.8192 0.8192 0.5736 -10.456 64.6669)" class="st2" width="132.3" height="2.3"/>
	
		<rect x="-18.4" y="36.4" transform="matrix(0.5736 -0.8192 0.8192 0.5736 -10.4077 55.1516)" class="st2" width="132.3" height="2.3"/>
	
		<rect x="-27.9" y="28.8" transform="matrix(0.5736 -0.8192 0.8192 0.5736 -8.2046 44.1295)" class="st2" width="132.3" height="2.3"/>
	
		<rect x="-36.9" y="23.7" transform="matrix(0.5736 -0.8192 0.8192 0.5736 -7.8645 34.5137)" class="st2" width="132.3" height="2.3"/>
</g>
</svg>
