<?xml version="1.0" encoding="UTF-8"?>
<svg id="Layer_1" data-name="Layer 1" xmlns="http://www.w3.org/2000/svg" viewBox="0 0 146.68 196">
  <defs>
    <style>
      .cls-1 {
        fill: #e00000;
      }
    </style>
  </defs>
  <path class="cls-1" d="M36.29,55.97v-18.77c0-19.24,14.76-35.52,33.59-37.07,19.56-1.61,36.74,11.6,39.98,30.83,.38,2.26,.46,4.59,.49,6.89,.06,5.96,.02,11.91,.02,18.12h2.13c9.07,0,18.15,0,27.22,0,4.58,0,6.96,2.38,6.96,6.94,0,41.98,0,83.97,0,125.95,0,4.84-2.26,7.13-7.07,7.13-44.18,0-88.37,0-132.55,0-4.73,0-7.05-2.31-7.05-6.99,0-41.98,0-83.97,.02-125.95,0-4.83,2.28-7.07,7.13-7.08,9.02,0,18.04,0,27.06,0h2.09ZM9.53,186.46h127.61V65.51h-26.76c0,1.61-.09,3.11,.04,4.59,.06,.65,.42,1.42,.91,1.85,4.06,3.57,4.52,9.43,.96,13.19-3.63,3.84-9.62,3.85-13.19,.02-3.62-3.88-3.15-9.77,1.04-13.27,.34-.28,.76-.71,.78-1.1,.08-1.75,.04-3.5,.04-5.28H45.72c0,1.37,.06,2.66-.02,3.93-.08,1.21,.25,2.04,1.25,2.88,2.42,2.04,3.44,4.78,2.98,7.92-.6,4.15-3.7,7.17-7.74,7.72-3.92,.54-7.82-1.65-9.43-5.29-1.64-3.7-.62-7.88,2.55-10.65,.38-.33,.9-.77,.92-1.19,.1-1.75,.04-3.5,.04-5.32H9.53v120.95ZM100.95,55.87v-1.67c0-5.85,.02-11.7,0-17.55-.06-14.71-12.37-27.08-27.08-27.24-15.53-.16-27.86,11.85-28.13,27.49-.1,5.9-.02,11.8-.01,17.71,0,.41,.09,.82,.15,1.26h55.09Z"/>
</svg>
