<?xml version="1.0" encoding="UTF-8"?>
<svg id="Layer_1" data-name="Layer 1" xmlns="http://www.w3.org/2000/svg" viewBox="0 0 190.93 194.38">
  <defs>
    <style>
      .cls-1 {
        fill: #f39220;
      }
    </style>
  </defs>
  <path class="cls-1" d="M37.46,62.1c-1.5-1.21-3.08-2.12-4.32-3.61-.93-1.12-1.9-2.98-1.94-4.56-.04-1.59,.84-3.52,1.68-4.8,.84-1.26,2.1-2,3.24-2.79,2.06-1.41,4.05-1.17,6.04,.54,.82,.71,1.85,1.26,2.79,1.27,13.65,.08,27.3,.04,40.95,.08,1.23,0,2.06-.39,2.9-1.91,3.54-6.45,9.85-6.36,13.39,.15,.73,1.34,1.45,1.76,2.56,1.75,13.78-.04,27.55,0,41.33-.08,.88,0,1.85-.54,2.6-1.23,2.17-1.97,4.76-2.01,6.85,.09,.62,.62,1.29,1.14,1.97,1.62,1.53,1.08,2.36,2.75,2.31,5.23-.04,2.34-.84,3.9-2.33,4.93-1.36,.95-2.64,2.15-4.06,3.32,2.96,7.99,5.9,15.9,8.84,23.81,7.85,21.12,15.68,42.25,23.58,63.34,.35,.94,1.19,1.96,1.89,2.11,3.04,.64,4.01,2.67,2.43,6.52-2.16,5.28-4.34,10.67-7.09,15.3-7.17,12.06-16.26,19.44-27.44,20.84-13.08,1.63-24.1-4.91-32.96-18.42-3.37-5.14-5.94-11.43-8.58-17.46-1.78-4.06-.83-6.01,2.51-6.79,.64-.15,1.38-1.18,1.71-2.07,7.35-19.63,14.65-39.3,21.95-58.97,3.28-8.82,6.55-17.65,9.82-26.47,.2-.55,.38-1.11,.53-1.57-2.03-2.68-4.33-3.21-6.94-3.18-12.88,.15-25.76,.09-38.64,.03-1.33,0-2.18,.51-3.04,2.07-3.47,6.29-9.81,6.19-13.28-.16-.76-1.39-1.5-1.91-2.7-1.91-13.71,.06-27.43-.04-41.14,.14-1.57,.02-3.14,1.53-4.91,2.46,2.13,5.76,4.09,11.08,6.06,16.38,8.84,23.8,17.67,47.6,26.55,71.36,.32,.87,1.13,1.77,1.79,1.91,3.07,.62,3.89,2.51,2.52,6.51-2.24,6.55-5.04,12.58-8.63,17.77-10.71,15.48-23.52,22.06-38.5,17.08-13.7-4.55-22.98-17.33-29.18-35.01-1.35-3.86-.48-5.75,2.47-6.36,.7-.15,1.57-1.12,1.92-2.05,6.88-18.33,13.69-36.71,20.52-55.08,3.97-10.67,7.93-21.35,11.93-32.15Zm31.52,89.21c-10.1-27.22-20.02-53.94-30.19-81.32-10.17,27.42-20.1,54.17-30.18,81.32h60.37Zm83.11-81.33c-10.21,27.5-20.12,54.21-30.15,81.24h60.3c-10.06-27.11-19.98-53.83-30.15-81.24Z"/>
  <polygon class="cls-1" points="102.63 48.59 88.06 48.59 88.06 27.63 88.06 25.96 94.94 25.96 102.63 25.96 102.63 27.84 102.63 48.59"/>
  <path class="cls-1" d="M101.76,6.41c0,3.54-2.87,6.41-6.41,6.41s-6.41-2.87-6.41-6.41,2.87-6.41,6.41-6.41,6.41,2.87,6.41,6.41Z"/>
  <rect class="cls-1" x="94.4" y="10.38" width="1.89" height="16.18"/>
</svg>
