<?xml version="1.0" encoding="UTF-8"?>
<svg id="Layer_1" data-name="Layer 1" xmlns="http://www.w3.org/2000/svg" viewBox="0 0 150.79 182.09">
  <defs>
    <style>
      .cls-1 {
        fill: #f39220;
      }
    </style>
  </defs>
  <path class="cls-1" d="M142.65,81.08v95.76c0,4.15-1.01,5.25-4.82,5.25-19.83,0-39.66,0-59.48,0-21.86,0-43.72,0-65.58,0-3.56,0-4.63-1.17-4.63-5.07,0-31.02,0-62.05,0-93.07v-2.87c-1.48,0-2.86,.02-4.23,0-2.63-.05-3.89-1.41-3.89-4.31C0,68.02,0,59.27,0,50.53c0-3.45,1.23-4.78,4.39-4.78,15.96,0,31.91,0,47.87,0h1.92c.03-.1,.06-.2,.09-.29-.54-.28-1.08-.55-1.62-.83-3.12-1.63-6.38-3-9.33-4.93-5.68-3.71-8.51-11.41-7.34-19,1.06-6.87,5.97-12.41,12.41-14,6.73-1.66,14.09,1.39,17.64,8.17,3.34,6.36,5.98,13.16,8.92,19.76,.28,.63,.5,1.29,.89,2.31,.52-1.37,.87-2.41,1.29-3.42,3.07-7.4,5.9-14.94,9.3-22.15,2.94-6.24,7.93-10.03,14.29-11.11,11.35-1.93,19.57,7.96,17.04,20.36-1.19,5.8-3.85,10.65-8.41,13.83-5.09,3.56-10.43,6.69-15.66,10-.5,.32-1.02,.59-1.51,1.31h1.77c17.31,0,34.61,0,51.91,0,3.88,0,4.91,1.13,4.91,5.38,0,8.42,0,16.84,0,25.26,0,3.4-1.17,4.66-4.26,4.69-1.22,0-2.43,0-3.87,0Zm-70.9,93.2V81.19H15.27v93.09h56.47Zm63.8-93.05h-56.56v93.01h56.56V81.23ZM7.11,73.2H71.75v-19.57H7.11v19.57Zm136.57-19.57H79.03v19.57h64.65v-19.57Zm-62.3-12.07c.21,.17,.41,.34,.62,.51,1.15-.6,2.33-1.14,3.45-1.82,6.62-4,13.3-7.88,19.79-12.12,3.62-2.36,5.46-6.3,5.94-10.93,.6-5.86-3.7-10.37-8.94-9.41-4.39,.8-7.88,3.29-9.83,7.64-3.84,8.62-7.37,17.4-11.03,26.12Zm-10.8,1.73c-1.11-2.97-1.9-5.47-2.95-7.83-2.52-5.69-4.9-11.47-7.82-16.9-2.15-4-5.94-5.11-10.02-4.27-3.66,.75-6.29,4.01-6.97,8.28-.64,3.97,1.14,8.6,4.42,10.67,7.16,4.53,15.06,6.99,23.34,10.05Z"/>
</svg>
