<?xml version="1.0" encoding="UTF-8"?>
<svg id="Layer_1" data-name="Layer 1" xmlns="http://www.w3.org/2000/svg" viewBox="0 0 216.17 191.2">
  <defs>
    <style>
      .cls-1 {
        fill: #fff;
      }

      .cls-2 {
        fill: #bfbfbf;
      }
    </style>
  </defs>
  <g>
    <path class="cls-1" d="M14.59,177.93c-1.15,.04-1.99,.06-2.53,.06-.82,0-1.96-.02-3.42-.06-.3,.33-.68,.73-1.12,1.18-.44,.45-.86,.87-1.25,1.26-.39,.39-.73,.72-1.01,.99-.28,.27-.52,.5-.7,.68-1.06,1.03-1.75,1.71-2.07,2.03-.32,.31-.66,.6-1.01,.85-.35,.26-.68,.38-.98,.38-.33,0-.5-.15-.5-.46,0-.34,.24-.85,.72-1.55,.48-.7,1.02-1.32,1.62-1.85,.6-.53,1.1-.8,1.48-.8,.1,0,.25,.05,.44,.14l2.73-2.91c-.35-.05-.79-.08-1.35-.09-.55-.02-.93-.05-1.12-.12-.19-.07-.29-.23-.29-.49,0-.41,.44-1.06,1.32-1.95,.48-.49,.93-.8,1.35-.93,.42-.13,1.23-.21,2.41-.22-.7,.1-1.19,.21-1.49,.34-.29,.13-.45,.32-.48,.58h.77c.23,0,.54,0,.92,0,.38,0,.66-.01,.84-.02,1.57-1.53,3-2.86,4.28-3.99,1.28-1.13,2.63-2.21,4.06-3.22,1.42-1.02,2.94-1.95,4.55-2.8,.31,.41,.47,.84,.47,1.29,0,.37-.12,.8-.37,1.29-.24,.49-.76,1.4-1.55,2.75-.79,1.35-1.59,2.78-2.4,4.29,.27,0,.49,0,.67,0,.18,0,.37,.01,.57,.02,.55,0,.88,.01,1,.03,.12,.02,.18,.11,.18,.29,0,.08-.07,.21-.22,.41-.15,.19-.41,.52-.79,.98-.37,.45-.74,.92-1.09,1.39l-2.11,.17c-1.12,2.1-1.68,3.28-1.68,3.55,0,.39,.2,.59,.61,.59,.2,0,1.03-.42,2.5-1.26l-.12,.76c-.79,.59-1.4,1.06-1.83,1.4-.44,.34-.81,.62-1.13,.85-.32,.22-.62,.39-.88,.5-.26,.11-.53,.17-.8,.17-.32,0-.63-.15-.94-.44-.31-.29-.46-.71-.46-1.24,0-.22,.08-.53,.24-.94,.16-.41,.34-.79,.53-1.17,.19-.38,.66-1.27,1.42-2.69Zm-2.72-3.28l4.66-.09c.55-.93,.99-1.68,1.33-2.25,.34-.57,.71-1.2,1.12-1.87,.41-.67,.75-1.24,1.05-1.71,.29-.47,.61-1,.97-1.59-.69,.43-1.4,.91-2.12,1.43-.72,.53-1.52,1.16-2.43,1.9-.9,.74-1.7,1.43-2.4,2.06-.7,.64-1.43,1.34-2.18,2.11Z"/>
    <path class="cls-1" d="M46.84,179.29v.93c-1.61,1.79-3.09,3.26-4.44,4.43-1.34,1.16-2.66,2.05-3.95,2.68-1.29,.63-2.53,.94-3.72,.94-1.03,0-1.92-.21-2.67-.62-.74-.41-1.3-1.01-1.68-1.8-.38-.79-.57-1.73-.57-2.81,0-.85,.14-1.75,.41-2.71,.27-.95,.67-1.91,1.19-2.89,.52-.97,1.15-1.97,1.91-3.01,.75-1.03,1.63-2.12,2.65-3.26,1.06-1.18,2.1-2.2,3.12-3.06,1.03-.86,1.96-1.53,2.79-2.02,.84-.49,1.61-.85,2.33-1.09,.71-.24,1.31-.36,1.77-.36s.89,.11,1.22,.34c.34,.23,.6,.57,.78,1.01,.18,.44,.27,.95,.27,1.52,0,1.08-.37,2.29-1.11,3.62-.74,1.33-1.66,2.61-2.76,3.84-1.1,1.24-2.15,2.25-3.16,3.03-1,.78-1.72,1.17-2.16,1.17-.3,0-.57-.12-.83-.36-.26-.23-.38-.5-.38-.8,0-.55,.29-1.21,.87-1.99,.58-.77,1.21-1.49,1.89-2.14,.69-.65,1.09-.97,1.23-.97,.07,0,.1,.03,.1,.09,0,.09-.05,.24-.15,.45-.1,.21-.15,.34-.15,.39,0,.08,.03,.12,.09,.12,.17,0,.63-.43,1.41-1.3,.77-.87,1.48-1.82,2.13-2.87,.65-1.05,.97-1.9,.97-2.57,0-.28-.06-.49-.18-.64-.12-.15-.3-.22-.54-.22-.67,0-1.69,.54-3.05,1.63-1.36,1.08-2.76,2.47-4.19,4.14-1.43,1.68-2.62,3.41-3.58,5.2-.96,1.79-1.43,3.36-1.43,4.72,0,.78,.12,1.44,.35,1.96,.24,.53,.58,.93,1.03,1.22,.45,.29,1,.43,1.64,.43,1.39,0,2.96-.54,4.73-1.62,1.76-1.08,3.7-2.67,5.81-4.77Z"/>
    <path class="cls-1" d="M46.58,180.45v-.94c.51-.62,.91-1.14,1.18-1.57-.31-.1-.53-.24-.67-.39-.14-.15-.21-.38-.21-.69,0-.35,.14-.78,.43-1.31,.29-.53,.65-1.02,1.07-1.48,.42-.46,.81-.76,1.15-.89,.14-.07,.26-.1,.39-.1,.19,0,.28,.09,.28,.27,0,.16-.15,.49-.44,.99,1.96-.31,3.2-.46,3.72-.46,.2,0,.34,.02,.42,.06,.16,.09,.3,.29,.4,.6,.11,.32,.16,.63,.16,.95,0,.2-.09,.42-.27,.65-.18,.23-.48,.58-.92,1.03-.5,.55-.93,1.15-1.27,1.79-.34,.65-.51,1.13-.51,1.46,0,.45,.28,.68,.83,.68s1.6-.59,3.04-1.79v.97c-.79,.83-1.45,1.48-1.96,1.96-.52,.48-.99,.86-1.43,1.14-.44,.28-.83,.42-1.18,.42-.4,0-.73-.18-1-.55-.27-.37-.4-.9-.4-1.6,0-.41,.1-.88,.31-1.41,.21-.53,.51-1.1,.92-1.72,.41-.62,.85-1.24,1.36-1.85-.27,.06-.57,.12-.9,.18-.33,.06-.69,.13-1.06,.19-.37,.07-.66,.12-.86,.16-.59,1.2-1.45,2.28-2.57,3.26Z"/>
    <path class="cls-1" d="M57.58,179.83v.36c0,.56,.14,1,.41,1.32,.28,.31,.65,.47,1.09,.47,.47,0,.96-.11,1.46-.33,.5-.22,1-.51,1.5-.87,.5-.37,1.1-.85,1.82-1.47v.88c-1.08,1.3-2.1,2.3-3.05,2.99-.95,.69-1.91,1.04-2.89,1.04-.85,0-1.53-.33-2.02-.99-.5-.66-.75-1.56-.75-2.71,0-1,.23-1.92,.7-2.73,.47-.82,1.23-1.68,2.3-2.59,.73-.62,1.45-1.09,2.16-1.41,.72-.31,1.36-.47,1.93-.47,.45,0,.81,.1,1.07,.31,.26,.2,.39,.51,.39,.93,0,.6-.22,1.2-.67,1.8-.45,.6-1.13,1.19-2.06,1.78-.92,.59-2.06,1.16-3.41,1.7Zm.14-.93c.86-.34,1.6-.75,2.21-1.25,.61-.5,1.07-.97,1.36-1.42,.29-.45,.43-.78,.43-.99s-.1-.33-.3-.33c-.17,0-.45,.11-.84,.33-.39,.22-.78,.51-1.18,.86-.4,.35-.75,.77-1.07,1.25-.32,.48-.52,1-.62,1.56Z"/>
    <path class="cls-1" d="M65.57,176.74c1.45-1.32,2.87-2.3,4.23-2.94,1.37-.64,2.42-.96,3.17-.96,.2,0,.39,.08,.56,.25,.17,.17,.31,.36,.41,.58,.1,.22,.15,.38,.15,.49,0,.17-.07,.3-.2,.38-.14,.08-.37,.18-.7,.29,.07,.15,.15,.35,.26,.59,.11,.24,.19,.43,.25,.58,.06,.15,.08,.28,.08,.39,0,.23-.23,.66-.69,1.29-.46,.63-.79,1.09-.98,1.39-.19,.3-.28,.66-.28,1.09,0,.71,.32,1.07,.98,1.07s1.72-.63,3.15-1.88v.88c-2.42,2.69-4.15,4.04-5.2,4.04-.37,0-.64-.12-.8-.37-.16-.24-.23-.61-.23-1.09,0-.76,.27-1.85,.81-3.29-1.39,1.55-2.43,2.66-3.11,3.31-.68,.66-1.24,.99-1.68,.99-.21,0-.47-.18-.79-.55-.32-.36-.6-.83-.84-1.41-.24-.58-.37-1.18-.37-1.8,0-.45,.04-.83,.13-1.13,.09-.3,.25-.61,.5-.93,.25-.31,.65-.73,1.19-1.25Zm6.87-1.56c-2.49,1.13-4.26,2.1-5.31,2.89-1.06,.8-1.59,1.61-1.59,2.45,0,.3,.05,.56,.16,.75,.1,.19,.25,.29,.43,.29,.1,0,.29-.07,.56-.2,1-.59,1.92-1.36,2.75-2.31,.83-.95,1.83-2.24,3-3.87Z"/>
    <path class="cls-1" d="M80.87,171.88h.62c.51-.91,.96-1.55,1.38-1.93,.41-.38,.88-.57,1.41-.57s.79,.12,.79,.36c0,.12-.21,.43-.62,.93-.41,.51-.72,.93-.93,1.28,.32,.04,.61,.07,.87,.1,.26,.03,.46,.05,.6,.07-.55,1.01-1.23,2.05-2.06,3.11-.27-.02-.49-.04-.68-.05-.18-.01-.37-.03-.55-.04-.19-.01-.41-.03-.68-.05-.52,.83-.95,1.58-1.3,2.24-.35,.66-.62,1.26-.8,1.81-.19,.54-.28,1.06-.28,1.55,0,.66,.26,1,.79,1,.36,0,.84-.19,1.43-.58,.59-.39,1.38-.99,2.36-1.79v.96c-2.58,2.81-4.5,4.21-5.73,4.21-.43,0-.78-.17-1.04-.5-.26-.34-.39-.77-.39-1.29,0-.35,.07-.77,.22-1.26,.15-.49,.41-1.22,.8-2.21-.13,.11-.26,.23-.38,.34-.12,.11-.23,.21-.33,.3-.1,.09-.21,.19-.32,.29-.11,.1-.23,.21-.35,.31v-.99c1.01-.85,2.22-2.33,3.65-4.45-.14,0-.28-.02-.4-.02-.12,0-.27,0-.44,0-.57,0-.99,.04-1.27,.11-.12,.03-.22,.06-.32,.09-.1,.04-.17,.05-.21,.05s-.06-.03-.06-.09c0-.31,.2-.78,.59-1.4,.32-.54,.62-.94,.9-1.2,.28-.26,.63-.44,1.03-.53,.41-.09,.98-.14,1.72-.14Z"/>
    <path class="cls-1" d="M90.02,179.31v1.05c-.93,1.2-1.8,2.1-2.6,2.71-.8,.61-1.49,.91-2.06,.91-.79,0-1.37-.41-1.76-1.23-.39-.82-.57-1.72-.57-2.7,0-.37,.04-.73,.12-1.07,.07-.34,.17-.62,.27-.84,.1-.22,.3-.56,.59-1.03,1.36-2.11,2.61-3.17,3.74-3.17,.58,0,.88,.22,.88,.68,0,.3-.19,.78-.57,1.43-.38,.65-.72,1.11-1.02,1.39-.83,.8-1.38,1.36-1.63,1.68-.26,.31-.38,.67-.38,1.07,0,.35,.13,.63,.39,.86,.26,.23,.6,.35,1.01,.35,.45,0,.95-.17,1.49-.5,.54-.33,1.24-.86,2.11-1.59Zm-.98-6.41c-.24,0-.47-.09-.69-.27-.21-.18-.32-.41-.32-.69,0-.42,.2-.89,.61-1.41,.4-.52,.82-.77,1.25-.77,.29,0,.53,.09,.72,.26,.19,.18,.29,.43,.29,.77,0,.41-.2,.86-.59,1.36-.39,.5-.81,.75-1.27,.75Z"/>
    <path class="cls-1" d="M99.14,179.29v.96c-.63,.57-1.14,.96-1.53,1.15-.38,.19-.93,.27-1.65,.23-1.24,1.48-2.34,2.21-3.29,2.21-.54,0-1.03-.18-1.47-.53-.44-.36-.79-.84-1.05-1.45-.26-.61-.39-1.3-.39-2.05,0-.61,.2-1.29,.61-2.04,.41-.75,.93-1.44,1.58-2.09,.65-.65,1.34-1.17,2.07-1.56,.74-.4,1.42-.6,2.05-.6,.45,0,.81,.07,1.06,.21,.26,.14,.39,.33,.39,.58,0,.19-.11,.41-.33,.66,.37,.08,.61,.2,.75,.38,.13,.18,.2,.5,.2,.97s-.11,1.04-.32,1.74c-.22,.7-.51,1.35-.88,1.96l.26,.26h.21c.16,0,.32-.04,.48-.12,.16-.08,.3-.17,.43-.26,.12-.09,.4-.29,.82-.61Zm-2.96-3.76c-.8,.48-1.47,.91-2.04,1.3-.56,.39-1.04,.78-1.43,1.18-.39,.4-.65,.8-.79,1.2-.24,1.07-.36,1.65-.36,1.74,0,.63,.44,.95,1.32,.95,.41,0,1.1-.35,2.07-1.06-.16-.45-.25-.88-.25-1.29,0-.6,.13-1.22,.38-1.84,.25-.63,.62-1.35,1.11-2.16Z"/>
    <path class="cls-1" d="M108.77,176.72c-1.68,1.87-2.52,3.17-2.52,3.91,0,.41,.17,.62,.5,.62,.28,0,.64-.14,1.08-.44,.45-.29,1.14-.81,2.09-1.56v.98c-1.36,1.35-2.4,2.31-3.13,2.91-.72,.6-1.32,.89-1.78,.89-.78,0-1.18-.52-1.18-1.55,0-.31,.05-.61,.14-.9,.1-.3,.23-.61,.39-.92,.17-.32,.42-.78,.76-1.38,.34-.6,.74-1.27,1.18-2.03-.54,.27-1.22,.82-2.04,1.64-.54,.52-.99,1.01-1.37,1.48-.38,.47-.78,.98-1.2,1.55-.43,.57-.74,.95-.94,1.15-.2,.2-.4,.3-.6,.3-.31,0-.59-.32-.85-.96-.26-.64-.39-1.39-.39-2.24,0-.53,.06-.94,.18-1.24,.12-.3,.36-.72,.71-1.26,.66-1.02,1.24-1.76,1.71-2.23,.48-.47,.94-.71,1.38-.71,.31,0,.56,.05,.75,.16,.18,.1,.28,.27,.28,.49,0,.1-.03,.2-.08,.3-.06,.1-.12,.2-.19,.29-.07,.09-.23,.26-.46,.51-1.52,1.67-2.28,2.75-2.28,3.24,0,.28,.09,.41,.27,.41,.12,0,.34-.18,.67-.55,.33-.37,.76-.85,1.28-1.45,.52-.6,1.14-1.22,1.85-1.87,.71-.65,1.52-1.28,2.44-1.88,.51-.36,.93-.53,1.27-.53,.15,0,.3,.21,.45,.63,.15,.42,.23,.85,.23,1.29,0,.21-.21,.53-.62,.96Z"/>
    <path class="cls-1" d="M126.08,179.33v.99c-.57,.57-1.01,.99-1.31,1.25-.3,.26-.7,.52-1.22,.79,0,.87-.04,1.61-.13,2.23-.09,.61-.28,1.25-.58,1.93-.3,.67-.76,1.41-1.38,2.22-.61,.79-1.22,1.4-1.81,1.83-.59,.42-1.05,.64-1.39,.64-.37,0-.72-.31-1.03-.92-.32-.61-.48-1.37-.48-2.28s.15-1.79,.45-2.76c.29-.97,.76-2.22,1.38-3.74-.47-.61-.7-1.22-.7-1.83,0-.49,.12-.86,.37-1.12,.25-.26,.6-.49,1.07-.7,.34-.53,.66-.97,.96-1.34,.3-.37,.71-.86,1.23-1.47,.99-2.45,2.16-4.85,3.5-7.18,.37-.65,.64-1.09,.8-1.32,.16-.22,.34-.34,.52-.34,.16,0,.31,.12,.43,.36,.12,.24,.19,.55,.19,.94,0,.47-.05,.9-.15,1.29-.1,.39-.24,.79-.43,1.18-.19,.4-.45,.87-.77,1.43-.33,.55-.53,.9-.61,1.03-.48,.84-1.02,1.77-1.62,2.8-.6,1.03-1.08,1.83-1.43,2.43s-.6,1.04-.75,1.33c.51,.45,.92,.84,1.22,1.17,.3,.32,.56,.71,.78,1.16,.33-.13,.62-.27,.89-.45,.27-.17,.58-.41,.95-.71,.36-.3,.72-.58,1.06-.84Zm-4.29,3.83l-.03-.3c-.27,.03-.48,.04-.65,.02-.16-.02-.35-.06-.57-.12-.22-.07-.38-.13-.5-.18-.12-.06-.25-.12-.4-.17-.73,1.78-1.1,3.26-1.1,4.44,0,.58,.09,1.08,.27,1.49,.18,.41,.39,.62,.63,.62s.56-.22,.94-.66c.38-.44,.71-1.09,.99-1.96,.28-.86,.42-1.92,.42-3.18Z"/>
    <path class="cls-1" d="M135.31,179.29v.96c-.63,.57-1.14,.96-1.52,1.15-.39,.19-.94,.27-1.65,.23-1.24,1.48-2.34,2.21-3.29,2.21-.53,0-1.02-.18-1.46-.53-.44-.36-.79-.84-1.06-1.45-.26-.61-.39-1.3-.39-2.05,0-.61,.2-1.29,.61-2.04,.41-.75,.94-1.44,1.58-2.09,.65-.65,1.34-1.17,2.07-1.56,.74-.4,1.42-.6,2.05-.6,.45,0,.8,.07,1.06,.21,.26,.14,.39,.33,.39,.58,0,.19-.11,.41-.33,.66,.36,.08,.61,.2,.74,.38,.14,.18,.2,.5,.2,.97s-.11,1.04-.32,1.74c-.22,.7-.51,1.35-.89,1.96l.26,.26h.21c.16,0,.32-.04,.48-.12,.16-.08,.3-.17,.42-.26,.13-.09,.4-.29,.82-.61Zm-2.96-3.76c-.79,.48-1.47,.91-2.04,1.3-.56,.39-1.04,.78-1.43,1.18-.39,.4-.65,.8-.79,1.2-.24,1.07-.36,1.65-.36,1.74,0,.63,.44,.95,1.32,.95,.41,0,1.1-.35,2.07-1.06-.16-.45-.24-.88-.24-1.29,0-.6,.12-1.22,.37-1.84,.25-.63,.62-1.35,1.11-2.16Z"/>
    <path class="cls-1" d="M135.13,180.45v-.94c.52-.62,.91-1.14,1.18-1.57-.3-.1-.53-.24-.67-.39-.14-.15-.21-.38-.21-.69,0-.35,.14-.78,.43-1.31,.29-.53,.64-1.02,1.06-1.48,.42-.46,.81-.76,1.15-.89,.14-.07,.26-.1,.39-.1,.19,0,.29,.09,.29,.27,0,.16-.15,.49-.45,.99,1.97-.31,3.21-.46,3.72-.46,.2,0,.34,.02,.41,.06,.17,.09,.3,.29,.41,.6,.11,.32,.16,.63,.16,.95,0,.2-.09,.42-.27,.65-.18,.23-.48,.58-.92,1.03-.5,.55-.93,1.15-1.27,1.79-.34,.65-.52,1.13-.52,1.46,0,.45,.28,.68,.83,.68s1.6-.59,3.04-1.79v.97c-.79,.83-1.45,1.48-1.97,1.96-.52,.48-1,.86-1.43,1.14-.44,.28-.83,.42-1.18,.42-.4,0-.74-.18-1-.55-.27-.37-.4-.9-.4-1.6,0-.41,.11-.88,.31-1.41,.21-.53,.52-1.1,.92-1.72,.4-.62,.85-1.24,1.36-1.85-.26,.06-.57,.12-.9,.18-.33,.06-.69,.13-1.06,.19-.37,.07-.66,.12-.86,.16-.59,1.2-1.45,2.28-2.57,3.26Z"/>
    <path class="cls-1" d="M163.61,180.98l.47,.36c-.12,.27-.25,.5-.36,.7-.12,.2-.25,.44-.42,.73-.17,.28-.29,.5-.38,.64-.72,1.25-1.4,1.88-2.03,1.88-.27,0-.5-.11-.69-.32-.19-.21-.29-.49-.29-.86,0-.52,.18-1.23,.55-2.12,.37-.9,.94-2.01,1.71-3.32,.77-1.31,1.74-2.8,2.91-4.47,1.17-1.66,2.48-3.42,3.95-5.26-.84-.12-1.85-.18-3-.18-1.33,0-2.81,.15-4.44,.45-1.63,.29-3.05,.63-4.26,1.02-1.21,.39-1.82,.67-1.82,.85,0,.07,.02,.11,.07,.14,.05,.02,.13,.04,.24,.05,.11,.02,.25,.03,.43,.05,1.12,.15,1.68,.32,1.68,.51,0,.09-.25,.14-.73,.14-.49,0-1.08,0-1.77,0-.55,0-.94-.02-1.18-.07-.24-.04-.41-.12-.49-.25-.08-.12-.12-.3-.12-.55,0-.17,.05-.52,.15-1.07,.18-1.02,.46-1.83,.84-2.44,.38-.61,.96-1.11,1.74-1.5,.78-.39,1.86-.7,3.23-.93,2.31-.39,4.21-.59,5.72-.59,1.11,0,1.98,.05,2.63,.14,.64,.09,1.11,.22,1.41,.4,.3,.17,.49,.34,.57,.51,.08,.17,.19,.46,.32,.87l.45,1.32c.03,.09,.05,.16,.07,.21,.02,.05,.04,.11,.05,.16,.02,.06,.02,.11,.02,.16,0,.37-.08,.71-.25,1-.17,.3-.47,.74-.92,1.33-.45,.59-.78,1.06-.98,1.39-2.47,4.01-4.15,6.97-5.05,8.9Z"/>
    <path class="cls-1" d="M168.82,180.45v-.94c.52-.62,.91-1.14,1.18-1.57-.3-.1-.53-.24-.67-.39-.14-.15-.21-.38-.21-.69,0-.35,.14-.78,.43-1.31,.29-.53,.64-1.02,1.06-1.48,.42-.46,.8-.76,1.15-.89,.13-.07,.26-.1,.39-.1,.19,0,.29,.09,.29,.27,0,.16-.15,.49-.45,.99,1.96-.31,3.21-.46,3.72-.46,.2,0,.34,.02,.41,.06,.16,.09,.3,.29,.4,.6,.11,.32,.16,.63,.16,.95,0,.2-.09,.42-.27,.65-.18,.23-.48,.58-.92,1.03-.5,.55-.93,1.15-1.27,1.79-.34,.65-.52,1.13-.52,1.46,0,.45,.28,.68,.83,.68s1.6-.59,3.04-1.79v.97c-.79,.83-1.45,1.48-1.96,1.96-.52,.48-.99,.86-1.43,1.14-.44,.28-.83,.42-1.18,.42-.4,0-.73-.18-1-.55-.27-.37-.4-.9-.4-1.6,0-.41,.1-.88,.31-1.41,.21-.53,.51-1.1,.92-1.72,.4-.62,.85-1.24,1.36-1.85-.27,.06-.57,.12-.9,.18-.33,.06-.69,.13-1.06,.19-.37,.07-.66,.12-.86,.16-.59,1.2-1.45,2.28-2.57,3.26Z"/>
    <path class="cls-1" d="M184.31,178.36c-1.39,1.84-2.44,3.14-3.16,3.92-.72,.77-1.31,1.16-1.77,1.16-.36,0-.7-.15-1-.45-.31-.3-.54-.71-.71-1.22-.17-.51-.25-1.06-.25-1.64,0-.38,.04-.73,.1-1.03,.07-.31,.21-.64,.41-1.01,.2-.37,.47-.77,.8-1.2,.33-.43,.73-.92,1.21-1.46,.29-.33,.53-.62,.73-.85,.2-.23,.38-.38,.57-.47,.18-.08,.49-.12,.91-.12,.31,0,.6,.04,.88,.12,.27,.08,.41,.17,.41,.25,0,.17-.14,.48-.43,.93-.28,.45-.73,1-1.36,1.64-.63,.65-1.35,1.28-2.17,1.91-.18,.56-.27,1-.27,1.29,0,.41,.16,.62,.47,.62,.11,0,.31-.1,.57-.3,.27-.19,.72-.57,1.36-1.13,.64-.56,1.21-1.05,1.72-1.49,.37-.33,.8-.81,1.29-1.46,.49-.65,.89-1.13,1.19-1.46,.71-.75,1.19-1.23,1.45-1.46,.26-.22,.51-.34,.75-.34s.38,.07,.47,.22c.08,.14,.12,.44,.12,.88,0,.2-.02,.36-.06,.49-.04,.13-.12,.28-.23,.48-.12,.2-.36,.56-.73,1.09-.36,.53-.79,1.15-1.29,1.86-.27,.39-.5,.8-.71,1.26-.2,.46-.3,.8-.3,1.03,0,.5,.19,.75,.59,.75,.32,0,.7-.13,1.13-.4,.43-.27,1.09-.75,1.98-1.45v.96c-1.12,1.03-1.95,1.78-2.49,2.25-.53,.47-1,.82-1.39,1.06-.39,.24-.76,.36-1.12,.36-.8,0-1.2-.48-1.2-1.43,0-.36,.12-.86,.36-1.47,.24-.61,.62-1.51,1.16-2.67Z"/>
    <path class="cls-1" d="M193.91,171.88h.62c.51-.91,.96-1.55,1.38-1.93,.41-.38,.88-.57,1.41-.57s.79,.12,.79,.36c0,.12-.2,.43-.61,.93-.41,.51-.72,.93-.94,1.28,.33,.04,.61,.07,.87,.1,.25,.03,.45,.05,.59,.07-.55,1.01-1.23,2.05-2.05,3.11-.27-.02-.49-.04-.67-.05-.18-.01-.37-.03-.56-.04-.19-.01-.41-.03-.68-.05-.52,.83-.95,1.58-1.3,2.24-.35,.66-.62,1.26-.81,1.81-.18,.54-.28,1.06-.28,1.55,0,.66,.27,1,.79,1,.36,0,.84-.19,1.43-.58,.59-.39,1.37-.99,2.36-1.79v.96c-2.58,2.81-4.49,4.21-5.73,4.21-.43,0-.78-.17-1.04-.5-.26-.34-.39-.77-.39-1.29,0-.35,.07-.77,.22-1.26,.15-.49,.42-1.22,.8-2.21-.13,.11-.26,.23-.38,.34-.12,.11-.23,.21-.33,.3-.1,.09-.21,.19-.32,.29-.12,.1-.23,.21-.34,.31v-.99c1.01-.85,2.22-2.33,3.65-4.45-.14,0-.28-.02-.4-.02-.12,0-.27,0-.45,0-.57,0-.99,.04-1.27,.11-.12,.03-.22,.06-.32,.09-.1,.04-.17,.05-.21,.05s-.06-.03-.06-.09c0-.31,.2-.78,.59-1.4,.32-.54,.61-.94,.9-1.2,.28-.26,.63-.44,1.04-.53,.4-.09,.98-.14,1.71-.14Z"/>
    <path class="cls-1" d="M206.94,179.3v.9c-.83,.86-1.55,1.55-2.16,2.09-.61,.54-1.14,.95-1.59,1.23-.46,.28-.84,.41-1.16,.41-.75,0-1.12-.44-1.12-1.32,0-.71,.23-1.53,.7-2.46,.47-.93,1.14-2.03,2.02-3.29-.44,.24-.84,.51-1.23,.82-.38,.31-.73,.63-1.03,.97-.3,.34-.55,.63-.75,.86-.62,.7-1.22,1.42-1.79,2.15-.57,.73-.96,1.21-1.16,1.43-.2,.22-.39,.33-.57,.33-.75,0-1.12-.92-1.12-2.75,0-.6,.09-1.27,.27-1.99,.18-.73,.67-1.69,1.47-2.88,1.67-2.51,3.1-4.56,4.29-6.15,1.19-1.59,2.18-2.8,2.97-3.62,.78-.82,1.31-1.22,1.58-1.2,.33,.03,.6,.09,.81,.2,.21,.11,.31,.22,.31,.36,0,.24-.16,.64-.49,1.18-.33,.55-.89,1.41-1.7,2.57-.87,1.23-1.49,2.1-1.85,2.6-.37,.5-.91,1.21-1.63,2.13-.72,.92-1.39,1.74-1.98,2.47-.6,.72-1.28,1.5-2.05,2.34v1.72c1.28-1.41,2.39-2.58,3.33-3.48,.94-.9,1.73-1.59,2.38-2.05,.65-.46,1.13-.7,1.43-.7,.29,0,.56,.17,.8,.51,.25,.34,.37,.61,.37,.83,0,.09-.05,.21-.14,.36-.69,.82-1.25,1.5-1.65,2.03-.41,.54-.73,1.02-.94,1.45-.22,.42-.33,.79-.33,1.09,0,.45,.22,.67,.65,.67,.46,0,1.49-.61,3.07-1.84Z"/>
    <path class="cls-1" d="M206.88,179.74v-.35c2.47-2.61,4.17-4.43,5.1-5.48,.21-1.18,.72-1.77,1.52-1.77,.2,0,.42,.05,.65,.17l.09,.27c-.04,.12-.06,.28-.06,.49,0,.18,.07,.52,.21,1.01,.14,.49,.25,.91,.32,1.24,.08,.34,.12,.71,.12,1.13,0,.64-.14,1.24-.43,1.82-.29,.58-.7,1.13-1.25,1.66-.54,.53-1.25,1.08-2.11,1.63,.34,.06,.61,.09,.82,.09,.39,0,.81-.1,1.27-.29,.45-.2,.92-.46,1.39-.79,.47-.33,1.03-.76,1.66-1.28v.96c-1.23,1.2-2.32,2.1-3.29,2.72-.97,.62-1.8,.93-2.5,.93-.9,0-1.74-.38-2.5-1.15-.45-.46-.73-.9-.84-1.32-.11-.42-.16-.99-.16-1.71Zm5.36-2.21l-.26-2.1c-.59,.67-1.86,1.96-3.81,3.87,.57,.13,.97,.29,1.18,.5,.21,.21,.51,.62,.89,1.22,.65-.27,1.15-.64,1.5-1.1,.35-.47,.52-1.1,.52-1.91,0-.1,0-.18,0-.26,0-.08-.01-.15-.02-.23Z"/>
  </g>
  <g>
    <g>
      <path class="cls-2" d="M34.53,127.39h-2.08l.07,9.49-.82-.75,.11-4.53c0-.76-.34-1.57-1.01-2.43-.5,.6-1.62,1.81-3.35,3.63l-1.24-.43c.75-.66,1.12-1.19,1.12-1.59,0-.27-.08-.53-.24-.76-.16-.23-.38-.35-.64-.35-.15,0-.51,.16-1.09,.49-.4,.01-.6-.28-.6-.88,0-.76,.37-1.39,1.12-1.89,.66-.45,1.39-.67,2.19-.67,.85,0,1.66,.41,2.43,1.22,.69,.71,1.17,1.52,1.44,2.42-.05-.76-.07-1.2-.07-1.31v-2.88l.58,.56h1.39l.67,.67Zm-6.74,3.39c.44-.52,1.17-1.34,2.21-2.45-.54-.45-1.07-.67-1.61-.67-.44,0-.85,.1-1.24,.3-.42,.21-.73,.5-.92,.86l.9,.41c.5,.29,.72,.81,.66,1.55Z"/>
      <path class="cls-2" d="M38.07,127.39h-1.97v9.49l-.82-.75,.09-8.75h-1.5l-.66-.67h2.15l.02-.56,.58,.56h1.42l.67,.67Z"/>
      <path class="cls-2" d="M61.04,127.39h-1.82v9.49l-.34-.32c-.24-1.07-.86-2.01-1.87-2.83-1.01-.82-2.07-1.24-3.17-1.26l-.95-1.16c2-1.62,3.88-2.63,5.65-3.05v-.88h-6.35l-.67-.67h8.86l.66,.67Zm-2.49,7.4v-5.41c-1.31,.36-2.66,1.06-4.06,2.1l-.04,.07,.06,.04c1.12,.51,1.9,.92,2.32,1.22,.7,.49,1.27,1.15,1.72,1.98Z"/>
      <path class="cls-2" d="M85.26,125.59c-1.69-1.54-3.31-2.3-4.89-2.3-.7,0-1.41,.21-2.14,.62-.82,.47-1.24,1.04-1.24,1.69,0,.39,.15,.76,.45,1.12h1.57l.66,.67h-2.06l.06,9.49-.82-.71,.11-8.78h-1.68l-.66-.67h2.3c-.62-.71-.94-1.27-.94-1.67,0-.72,.47-1.37,1.4-1.93,.82-.5,1.62-.75,2.4-.75,1.85,0,3.67,.93,5.47,2.79v.43Z"/>
      <path class="cls-2" d="M89.56,127.39h-2.06v9.49l-.67-.64v-4.31c0-.47-.1-.94-.3-1.39-.25-.56-.58-.84-.99-.84-.5,0-.73,.69-.69,2.06l-.26-.15c-.46-1.24-1.25-1.85-2.38-1.85-.55,0-1,.2-1.35,.6-.35,.4-.52,.88-.52,1.44,0,.39,.13,.76,.4,1.11,.28,.39,.61,.58,.98,.58l.32-.09c-.31-.21-.47-.5-.47-.86,0-.25,.11-.47,.34-.66,.22-.19,.46-.28,.71-.28,.26,0,.49,.12,.69,.36,.2,.24,.3,.49,.3,.77,0,.4-.17,.72-.52,.95-.3,.21-.66,.32-1.09,.32-.71,0-1.29-.29-1.74-.88-.4-.54-.6-1.17-.6-1.91s.19-1.34,.58-1.82c.42-.52,.99-.79,1.7-.79,.65,0,1.34,.49,2.07,1.46,.05-.34,.17-.64,.37-.92,.22-.32,.49-.49,.8-.49,.54,0,1.08,.59,1.64,1.76v-3.03h-7.66l-.67-.67h10.41l.65,.67Z"/>
      <path class="cls-2" d="M109.43,135.55c0,.38-.15,.69-.45,.96-.3,.26-.64,.39-1.03,.39-1.14,0-2-.49-2.6-1.48-.51-.82-.77-1.83-.77-3.03,0-1.55,.42-2.86,1.27-3.93,.92-1.16,2.14-1.74,3.65-1.74l.67,.66c-1.45,.02-2.62,.56-3.5,1.59-.85,.99-1.27,2.22-1.27,3.69,0,.91,.14,1.7,.43,2.36,.39,.89,.97,1.33,1.74,1.33,.13,0,.24-.05,.34-.15-.33-.17-.49-.46-.49-.86,0-.25,.1-.46,.3-.64,.2-.17,.43-.26,.69-.26,.67,0,1.01,.37,1.01,1.12Z"/>
      <path class="cls-2" d="M116.23,128.28c1,.09,1.82,.4,2.47,.95,.72,.6,1.09,1.38,1.09,2.33,0,1.31-.49,1.96-1.46,1.96-.27,0-.51-.1-.71-.29-.2-.19-.3-.43-.3-.7s.08-.51,.25-.69c.17-.19,.39-.28,.66-.28,.21,0,.41,.07,.58,.22,.17,.14,.27,.32,.28,.53l.02,.04,.04-.02c.1-.16,.15-.44,.15-.82,0-.69-.36-1.23-1.07-1.63-.59-.34-1.25-.52-2-.56v7.56l-.34-.32c-.11-1.06-.65-2.02-1.62-2.88-.97-.86-1.98-1.29-3.04-1.29l-1.03-1.31c2.13-1.6,3.91-2.52,5.35-2.77v-.93h-5.94l-.65-.67h11.44l.67,.67h-4.85v.9Zm-.67,6.31v-5.23c-1.23,.3-2.53,.97-3.91,2l-.02,.06,.02,.04c1.91,.76,3.22,1.8,3.91,3.13Z"/>
      <path class="cls-2" d="M145.55,127.41h-2.02l.06,9.48-.8-.73,.09-4.55c0-.56-.21-1.32-.64-2.27-.47-1.07-.96-1.61-1.44-1.61s-.91,.4-1.27,1.2c.56,.46,.91,.76,1.05,.9,.4,.41,.6,.8,.6,1.16,0,.29-.09,.53-.28,.73-.19,.2-.42,.3-.71,.3-.31,0-.6-.26-.86-.77-.16-.32-.34-.71-.54-1.14l-.04-.04-.04,.04c-.42,1.27-.89,1.91-1.4,1.91-.27,0-.51-.1-.71-.31-.2-.21-.3-.45-.3-.72,0-.36,.21-.76,.64-1.18,.09-.09,.44-.39,1.07-.92-.29-.69-.66-1.12-1.11-1.31-.3-.12-.88-.19-1.74-.19l-.62-.66h1.69c.9,0,1.63,.62,2.19,1.87,.59-1.25,1.29-1.87,2.12-1.87,.59,0,1.15,.46,1.69,1.39,.37,.65,.66,1.37,.86,2.17l-.09-1.57v-2.55l.56,.56h1.35l.67,.67Z"/>
      <path class="cls-2" d="M168.4,127.39h-2v9.49l-.67-.64c0-1.39-.18-2.58-.53-3.58-.5-1.44-1.32-2.15-2.45-2.15-.38,0-.61,.07-.69,.21,.46,.27,.69,.64,.69,1.11,0,.37-.12,.68-.36,.92-.24,.24-.54,.36-.92,.36s-.69-.15-.96-.46-.39-.65-.39-1.04c0-.6,.24-1.09,.71-1.46,.44-.35,.96-.52,1.57-.52,.89,0,1.64,.39,2.25,1.16,.51,.64,.87,1.44,1.07,2.42v-5.81h-6.05l-.67-.67h8.75l.65,.67Z"/>
      <path class="cls-2" d="M192.93,127.39h-2.06l.06,9.49-.79-.75v-3.65c0-.44-.11-.87-.34-1.31-.27-.5-.61-.75-1.01-.75-.19,0-.74,.56-1.67,1.68-.92,1.12-1.52,1.68-1.8,1.68-.47,0-1.05-.65-1.74-1.97l.39-.37c.25,.74,.52,1.11,.82,1.11,.26,0,.79-.46,1.57-1.38,.09-.37,.13-.76,.13-1.16,0-.78-.27-1.31-.82-1.59-.21-.1-.74-.22-1.57-.37-.6-.1-.94-.32-1.01-.65h-.64l-.66-.67h10.45l.67,.67Zm-2.73,0h-4.91c1.09,.52,1.63,1.3,1.63,2.35,0,.24-.02,.51-.07,.82,.58-.81,1.09-1.22,1.53-1.22,.51,0,1.1,.61,1.77,1.83l.06-3.78Z"/>
    </g>
    <g>
      <path class="cls-1" d="M45.32,76.04c-1.41-.72-3.01-1.14-4.7-1.14h-12.59c-1.31,0-2.53,.54-3.39,1.4-.86,.86-1.4,2.07-1.4,3.39v15.49h11.03v5.67c0,.35-.09,.7-.3,1.09-.31,.58-.94,1.22-1.71,1.66-.77,.45-1.68,.7-2.4,.69h-5.82v5.63h5.82c2.49-.02,4.83-.95,6.7-2.47,.93-.77,1.75-1.71,2.36-2.82,.6-1.11,.99-2.4,.99-3.78v-7.09c0-1.15-.48-2.22-1.23-2.97-.75-.76-1.82-1.23-2.97-1.23h-6.82v-9.02h11.76c1.31,0,2.46,.52,3.32,1.38,.85,.86,1.37,2.01,1.38,3.32v30.37h5.63v-40.67h-5.63v1.12Z"/>
      <polygon class="cls-1" points="54.31 74.9 54.31 80.53 56.97 80.53 56.97 115.59 62.59 115.59 62.59 74.9 54.31 74.9"/>
      <polygon class="cls-1" points="156.1 74.9 147.82 74.9 147.82 80.53 150.47 80.53 150.47 115.59 156.1 115.59 156.1 80.53 156.13 80.53 156.13 74.9 156.1 74.9 156.1 74.9"/>
      <path class="cls-1" d="M74.21,74.9v-5.19h23.16v-5.63h-24.42c-1.2,0-2.31,.49-3.09,1.28-.79,.78-1.28,1.89-1.28,3.09v6.45h-2.66v5.63h2.66v35.06h5.63v-40.69Z"/>
      <path class="cls-1" d="M191.8,114.41v-39.51h-30.67v5.63h25.04v8.3c-1.6-.9-3.45-1.42-5.41-1.42h-8.57c-3.04,0-5.81,1.24-7.8,3.23-1.99,1.99-3.23,4.76-3.23,7.8v12.9c0,.89,.37,1.72,.95,2.3,.58,.58,1.41,.95,2.3,.95h11.01c.89,0,1.72-.37,2.3-.95,.58-.58,.95-1.41,.95-2.3v-10.96h-5.63v8.59h-6.25v-10.52c0-1.5,.6-2.84,1.58-3.82,.99-.98,2.32-1.58,3.82-1.58h8.57c1.5,0,2.84,.6,3.82,1.58,.98,.99,1.58,2.32,1.58,3.82v17.15h5.63v-1.18h0Z"/>
      <path class="cls-1" d="M115.42,74.9v5.63h.06s0,.01,0,.01c.2,.04,3.37,.89,6.26,3.05,1.45,1.07,2.82,2.45,3.82,4.18,.63,1.09,1.12,2.31,1.41,3.75h-11.71v15.57c0,.94,.39,1.81,1,2.42,.61,.61,1.48,1,2.42,1h15.33c.95,0,1.66,.18,2.23,.44,.85,.39,1.44,1,1.89,1.81,.44,.81,.69,1.84,.69,2.84h5.63v-40.69h-29.02Zm23.16,30.92c-1.35-.62-2.91-.96-4.58-.95h-13.11v-7.73h11.98v-2.81c0-3.81-1.02-7.06-2.58-9.63-.99-1.65-2.19-3.02-3.44-4.17h11.97v25.41c-.08-.04-.15-.08-.23-.12Z"/>
      <rect class="cls-1" x="124.63" y="113.88" width="7.79" height="5.63"/>
      <path class="cls-1" d="M109.01,64.64l-11.72,8.71,1.15,1.55h-19.03v5.63h13.2v16.61h11.88v6.92c0,1.57-.63,2.97-1.66,4-1.03,1.03-2.43,1.66-4,1.66h-8.26c-1.57,0-2.97-.63-4-1.66-1.03-1.03-1.66-2.43-1.66-4v-19.44h-5.63v19.44c0,3.11,1.27,5.95,3.31,7.98,2.03,2.04,4.87,3.31,7.98,3.31h8.26c3.11,0,5.95-1.27,7.98-3.31,2.04-2.03,3.31-4.87,3.31-7.98v-12.54h-11.88v-10.98h11.92v-5.63h-5.53l7.73-5.75-3.36-4.52Z"/>
    </g>
    <g>
      <path class="cls-2" d="M124.85,7.24c-.76-.56-1.84-.73-2.89-.73,0,0,0,0,0,0-1.68,0-3.27,.45-3.27,.45,0,0-4.3,.78-10.27,4.26,1.92,3.89,3.13,8.65,3.58,14.22,.66,8.18-.29,18.19-2.83,29.82,5.1-8.3,20.1-28.65,45.37-30.49-6.17-.11-19.96-10.45-29.69-17.53Z"/>
      <path class="cls-1" d="M107.62,58.44c.07-.3,.14-.59,.21-.89,0,0,0,0,0,0,5.52-23.71,3.95-37.69-.1-45.92-.06-.12-.11-.23-.17-.34-.06-.13-.13-.25-.19-.37C102.13,1.06,93.24,0,89.67,0c-.97,0-1.54,.08-1.54,.08,0,0-2.15,.08-3.33,3.1-1.17,3.03-6.18,21.01-10.61,23.83,15.01,2.44,22.35,8.18,25.86,13.88,1.51,2.45,2.31,4.9,2.71,7.06,.79,4.35-.04,7.59-.04,7.59l3.36,3.65,.26,.28,.82,.89c.05-.19,.09-.37,.13-.55,.05-.21,.1-.43,.16-.64,.03-.13,.06-.26,.09-.39,.03-.12,.05-.23,.08-.34"/>
    </g>
  </g>
</svg>