<?xml version="1.0" encoding="UTF-8"?>
<svg id="Layer_1" data-name="Layer 1" xmlns="http://www.w3.org/2000/svg" viewBox="0 0 70.2 61.64">
  <defs>
    <style>
      .cls-1 {
        fill: #231f20;
      }
    </style>
  </defs>
  <polygon class="cls-1" points="3.71 28 3.71 18.15 35.19 0 67.18 18.45 67.03 28.16 35.19 10.14 3.71 28"/>
  <path class="cls-1" d="M61.63,41.81h-8.62V13.7h2.2c3.55,0,6.42,2.88,6.42,6.42v21.69Z"/>
  <path class="cls-1" d="M17.37,42.22H8.74V19.89c0-3.19,2.59-5.78,5.78-5.78h2.84v28.11Z"/>
  <rect class="cls-1" x="35.47" y="30.67" width="5.28" height="5.28"/>
  <rect class="cls-1" x="29.38" y="30.67" width="5.28" height="5.28"/>
  <rect class="cls-1" x="35.47" y="23.77" width="5.28" height="5.28"/>
  <rect class="cls-1" x="29.38" y="23.77" width="5.28" height="5.28"/>
  <path class="cls-1" d="M36.04,56.53s10.15-13.39,26.14-12.98v3.78s-11-1.12-26.14,9.2Z"/>
  <path class="cls-1" d="M35.5,61.64s7.61-13.39,34.7-10.12v3.78s-25.14-2.45-34.7,6.34Z"/>
  <path class="cls-1" d="M34.16,56.53s-10.15-13.39-26.14-12.98v3.78s11-1.12,26.14,9.2Z"/>
  <path class="cls-1" d="M34.7,61.64S27.09,48.25,0,51.52v3.78s25.14-2.45,34.7,6.34Z"/>
</svg>