<?xml version="1.0" encoding="UTF-8"?>
<svg id="Layer_1" data-name="Layer 1" xmlns="http://www.w3.org/2000/svg" viewBox="0 0 190.29 198.91">
  <defs>
    <style>
      .cls-1 {
        fill: #e00000;
      }
    </style>
  </defs>
  <path class="cls-1" d="M156.09,151.99c-2.84,0-5.55-.08-8.25,.02-2.58,.1-4.27-1.15-5.19-3.34-.6-1.45-1.03-3.09-1.03-4.65-.07-21.65-.05-43.29-.03-64.94,0-.95,.1-1.92,.35-2.83,.9-3.17,2.65-5.41,6.45-5.16,.24-4.55,.01-8.93-.98-13.25-4.43-19.29-19.44-33.2-39.11-35.62-6.39-.79-12.94-.48-19.41-.39-3.44,.04-6.93,.39-10.3,1.09-18.28,3.8-32.68,19.18-35.34,37.68-.49,3.4-.53,6.87-.78,10.27,3.74,.6,5.85,2.81,6.16,7.84,.15,2.35,.03,4.72,.04,7.08,0,19.18,0,38.37,0,57.56,0,2.24-.3,4.41-1.6,6.32-1.02,1.5-2.37,2.35-4.28,2.34-8.04-.04-16.07-.02-24.11-.01-4.23,0-7.69-1.8-10.57-4.72-5.06-5.14-7.61-11.54-7.86-18.59C-.11,118.04,0,107.39,.07,96.75c.02-2.68,.48-5.41,1.11-8.03,1.25-5.22,3.62-9.88,7.68-13.54,2.91-2.62,6.27-4.12,10.24-4.04,.54,.01,1.09,0,1.88,0,0-1.12,0-2.1,0-3.09,.07-19.96,7.41-36.82,22.05-50.32C55.33,6.39,70.05,.58,86.76,.12c7.02-.19,14.07-.2,21.08,.24,13.94,.87,26.38,5.89,37.18,14.71,14.27,11.65,22.51,26.71,24.72,45.01,.36,2.98,.3,6.01,.42,9.02,.02,.59,0,1.19,0,1.89,1.26,.11,2.41,.11,3.52,.32,5.92,1.11,9.68,5,12.5,9.99,2.88,5.11,4.03,10.68,4.07,16.49,.05,9.04,.06,18.08,0,27.12-.04,7.4-1.69,14.36-6.33,20.32-3.46,4.45-7.87,7.08-13.73,6.76-1.34-.07-2.7-.01-4.3-.01,0,.75,0,1.37,0,2-.08,4.76,.28,9.53-.81,14.25-2.79,12.09-13.6,21.45-25.97,22.27-3.2,.21-6.42,.15-9.63,.15-.91,0-1.39,.22-1.74,1.17-1.64,4.38-5.54,7.04-10.22,7.06-6.58,.02-13.16,.03-19.74,0-6.05-.03-10.75-4.77-10.79-10.84-.01-2.11-.17-4.25,.17-6.31,.86-5.19,5.13-8.83,10.44-8.92,6.73-.11,13.46-.15,20.19,0,4.75,.11,8.16,2.52,9.94,7,.34,.85,.75,1.13,1.64,1.1,3.56-.13,7.18,.18,10.67-.36,8.99-1.4,15.56-8.88,16.03-17.95,.18-3.45,.03-6.91,.03-10.63Z"/>
</svg>
