<?xml version="1.0" encoding="UTF-8"?>
<svg id="Layer_1" data-name="Layer 1" xmlns="http://www.w3.org/2000/svg" viewBox="0 0 205.83 205.83">
  <defs>
    <style>
      .cls-1 {
        fill: #fff;
      }

      .cls-2 {
        fill: #e00000;
      }
    </style>
  </defs>
  <circle class="cls-2" cx="102.92" cy="102.92" r="102.92"/>
  <g>
    <path class="cls-1" d="M102.22,110.49c19.28,.3,35.52,6.42,49.34,18.66,7.82,6.93,13.75,15.31,18.09,24.81,.6,1.3,.44,2.12-.63,3.12-13.28,12.37-28.72,20.66-46.49,24.36-8.74,1.82-17.59,2.43-26.57,1.74-18.75-1.44-35.57-7.82-50.6-19.01-3.01-2.24-5.73-4.86-8.64-7.24-1.03-.85-1.07-1.66-.55-2.81,7.38-16.18,18.96-28.32,34.88-36.25,7.38-3.68,15.25-5.83,23.41-6.89,2.84-.37,5.72-.38,7.76-.51Z"/>
    <path class="cls-1" d="M102.94,22.37c21.16,0,38.43,17.33,38.41,38.54-.02,21.07-17.43,38.3-38.7,38.28-20.83-.01-38.12-17.47-38.11-38.48,0-21.05,17.32-38.34,38.41-38.34Z"/>
  </g>
</svg>
